<svg width="725" height="132" viewBox="0 0 725 132" fill="none" xmlns="http://www.w3.org/2000/svg">
<path d="M7.76 100.344H2.672L1.696 103H0.512L4.592 91.96H5.856L9.92 103H8.736L7.76 100.344ZM7.424 99.416L5.216 93.368L3.008 99.416H7.424ZM13.1735 95.208V100.632C13.1735 101.165 13.2748 101.533 13.4775 101.736C13.6802 101.939 14.0375 102.04 14.5495 102.04H15.5735V103H14.3735C13.5842 103 12.9975 102.819 12.6135 102.456C12.2295 102.083 12.0375 101.475 12.0375 100.632V95.208H10.8215V94.264H12.0375V92.072H13.1735V94.264H15.5735V95.208H13.1735ZM24.9886 94.264V103H23.8686V101.464C23.6126 102.008 23.218 102.424 22.6846 102.712C22.1513 103 21.554 103.144 20.8926 103.144C19.8473 103.144 18.994 102.824 18.3326 102.184C17.6713 101.533 17.3406 100.595 17.3406 99.368V94.264H18.4446V99.24C18.4446 100.189 18.6793 100.915 19.1486 101.416C19.6286 101.917 20.2793 102.168 21.1006 102.168C21.9433 102.168 22.6153 101.901 23.1166 101.368C23.618 100.835 23.8686 100.051 23.8686 99.016V94.264H24.9886ZM27.0336 98.616C27.0336 97.72 27.2096 96.936 27.5616 96.264C27.9243 95.5813 28.4203 95.0587 29.0496 94.696C29.6896 94.3227 30.4096 94.136 31.2096 94.136C32.0416 94.136 32.7563 94.328 33.3536 94.712C33.9616 95.096 34.399 95.5867 34.6656 96.184V94.264H35.7856V103H34.6656V101.064C34.3883 101.661 33.9456 102.157 33.3376 102.552C32.7403 102.936 32.0256 103.128 31.1936 103.128C30.4043 103.128 29.6896 102.941 29.0496 102.568C28.4203 102.195 27.9243 101.667 27.5616 100.984C27.2096 100.301 27.0336 99.512 27.0336 98.616ZM34.6656 98.632C34.6656 97.928 34.5216 97.3093 34.2336 96.776C33.9456 96.2427 33.551 95.832 33.0496 95.544C32.559 95.256 32.015 95.112 31.4176 95.112C30.799 95.112 30.2443 95.2507 29.7536 95.528C29.263 95.8053 28.8736 96.2107 28.5856 96.744C28.3083 97.2667 28.1696 97.8907 28.1696 98.616C28.1696 99.3307 28.3083 99.96 28.5856 100.504C28.8736 101.037 29.263 101.448 29.7536 101.736C30.2443 102.013 30.799 102.152 31.4176 102.152C32.015 102.152 32.559 102.008 33.0496 101.72C33.551 101.432 33.9456 101.021 34.2336 100.488C34.5216 99.9547 34.6656 99.336 34.6656 98.632ZM39.4625 91.16V103H38.3425V91.16H39.4625ZM42.5588 92.616C42.3348 92.616 42.1428 92.536 41.9828 92.376C41.8228 92.216 41.7428 92.0187 41.7428 91.784C41.7428 91.5493 41.8228 91.3573 41.9828 91.208C42.1428 91.048 42.3348 90.968 42.5588 90.968C42.7828 90.968 42.9748 91.048 43.1348 91.208C43.2948 91.3573 43.3748 91.5493 43.3748 91.784C43.3748 92.0187 43.2948 92.216 43.1348 92.376C42.9748 92.536 42.7828 92.616 42.5588 92.616ZM43.1188 94.264V103H41.9988V94.264H43.1188ZM46.247 102.072H50.823V103H44.967V102.072L49.463 95.192H45.047V94.264H50.743V95.192L46.247 102.072ZM52.2055 98.616C52.2055 97.72 52.3815 96.936 52.7335 96.264C53.0962 95.5813 53.5922 95.0587 54.2215 94.696C54.8615 94.3227 55.5815 94.136 56.3815 94.136C57.2135 94.136 57.9282 94.328 58.5255 94.712C59.1335 95.096 59.5708 95.5867 59.8375 96.184V94.264H60.9575V103H59.8375V101.064C59.5602 101.661 59.1175 102.157 58.5095 102.552C57.9122 102.936 57.1975 103.128 56.3655 103.128C55.5762 103.128 54.8615 102.941 54.2215 102.568C53.5922 102.195 53.0962 101.667 52.7335 100.984C52.3815 100.301 52.2055 99.512 52.2055 98.616ZM59.8375 98.632C59.8375 97.928 59.6935 97.3093 59.4055 96.776C59.1175 96.2427 58.7228 95.832 58.2215 95.544C57.7308 95.256 57.1868 95.112 56.5895 95.112C55.9708 95.112 55.4162 95.2507 54.9255 95.528C54.4348 95.8053 54.0455 96.2107 53.7575 96.744C53.4802 97.2667 53.3415 97.8907 53.3415 98.616C53.3415 99.3307 53.4802 99.96 53.7575 100.504C54.0455 101.037 54.4348 101.448 54.9255 101.736C55.4162 102.013 55.9708 102.152 56.5895 102.152C57.1868 102.152 57.7308 102.008 58.2215 101.72C58.7228 101.432 59.1175 101.021 59.4055 100.488C59.6935 99.9547 59.8375 99.336 59.8375 98.632ZM67.2424 102.184C67.9784 102.184 68.5917 102.008 69.0824 101.656C69.5837 101.293 69.909 100.792 70.0584 100.152H71.2584C71.0664 100.995 70.6504 101.683 70.0104 102.216C69.381 102.749 68.581 103.048 67.6104 103.112V104.072C68.2397 104.051 68.7357 104.168 69.0984 104.424C69.4717 104.691 69.6584 105.069 69.6584 105.56C69.6584 106.04 69.4877 106.419 69.1464 106.696C68.805 106.984 68.3517 107.128 67.7864 107.128H66.1864V106.376H67.5624C67.957 106.376 68.245 106.307 68.4264 106.168C68.6184 106.04 68.7144 105.837 68.7144 105.56C68.7144 105.048 68.3304 104.792 67.5624 104.792H66.8264V103.112C66.0797 103.048 65.4184 102.829 64.8424 102.456C64.2664 102.072 63.813 101.555 63.4824 100.904C63.1624 100.243 63.0024 99.4853 63.0024 98.632C63.0024 97.7253 63.1837 96.936 63.5464 96.264C63.909 95.5813 64.4104 95.0587 65.0504 94.696C65.6904 94.3227 66.421 94.136 67.2424 94.136C68.3197 94.136 69.205 94.4027 69.8984 94.936C70.6024 95.4693 71.0557 96.1947 71.2584 97.112H70.0584C69.909 96.4827 69.5837 95.992 69.0824 95.64C68.5917 95.2773 67.9784 95.096 67.2424 95.096C66.6557 95.096 66.1277 95.2293 65.6584 95.496C65.189 95.7627 64.8157 96.1627 64.5384 96.696C64.2717 97.2187 64.1384 97.864 64.1384 98.632C64.1384 99.4 64.2717 100.051 64.5384 100.584C64.8157 101.117 65.189 101.517 65.6584 101.784C66.1277 102.051 66.6557 102.184 67.2424 102.184ZM77.1509 103.128C76.3295 103.128 75.5882 102.947 74.9269 102.584C74.2762 102.211 73.7589 101.688 73.3749 101.016C73.0015 100.333 72.8149 99.5387 72.8149 98.632C72.8149 97.7253 73.0069 96.936 73.3909 96.264C73.7749 95.5813 74.2975 95.0587 74.9589 94.696C75.6202 94.3227 76.3615 94.136 77.1829 94.136C78.0042 94.136 78.7455 94.3227 79.4069 94.696C80.0789 95.0587 80.6015 95.5813 80.9749 96.264C81.3589 96.936 81.5509 97.7253 81.5509 98.632C81.5509 99.528 81.3589 100.317 80.9749 101C80.5909 101.683 80.0629 102.211 79.3909 102.584C78.7189 102.947 77.9722 103.128 77.1509 103.128ZM77.1509 102.152C77.7269 102.152 78.2602 102.024 78.7509 101.768C79.2415 101.501 79.6362 101.107 79.9349 100.584C80.2442 100.051 80.3989 99.4 80.3989 98.632C80.3989 97.864 80.2495 97.2187 79.9509 96.696C79.6522 96.1627 79.2575 95.768 78.7669 95.512C78.2762 95.2453 77.7429 95.112 77.1669 95.112C76.5909 95.112 76.0575 95.2453 75.5669 95.512C75.0762 95.768 74.6815 96.1627 74.3829 96.696C74.0949 97.2187 73.9509 97.864 73.9509 98.632C73.9509 99.4 74.0949 100.051 74.3829 100.584C74.6815 101.107 75.0709 101.501 75.5509 101.768C76.0415 102.024 76.5749 102.152 77.1509 102.152ZM75.1029 93.224C75.1669 92.744 75.3215 92.376 75.5669 92.12C75.8122 91.864 76.1269 91.736 76.5109 91.736C76.7029 91.736 76.8682 91.7733 77.0069 91.848C77.1455 91.912 77.3109 92.008 77.5029 92.136C77.6629 92.2533 77.8015 92.344 77.9189 92.408C78.0362 92.4613 78.1642 92.488 78.3029 92.488C78.4842 92.488 78.6389 92.4293 78.7669 92.312C78.8949 92.184 78.9749 92.0027 79.0069 91.768H79.6789C79.6362 92.2373 79.4815 92.6053 79.2149 92.872C78.9589 93.128 78.6389 93.256 78.2549 93.256C78.0522 93.256 77.8762 93.224 77.7269 93.16C77.5882 93.0853 77.4229 92.9787 77.2309 92.84C77.0815 92.7227 76.9482 92.6373 76.8309 92.584C76.7242 92.5307 76.6015 92.504 76.4629 92.504C76.0789 92.504 75.8549 92.744 75.7909 93.224H75.1029ZM91.4965 98.184C91.4965 98.568 91.4858 98.8613 91.4645 99.064H84.2165C84.2485 99.7253 84.4085 100.291 84.6965 100.76C84.9845 101.229 85.3632 101.587 85.8325 101.832C86.3018 102.067 86.8138 102.184 87.3685 102.184C88.0938 102.184 88.7018 102.008 89.1925 101.656C89.6938 101.304 90.0245 100.829 90.1845 100.232H91.3685C91.1552 101.085 90.6965 101.784 89.9925 102.328C89.2992 102.861 88.4245 103.128 87.3685 103.128C86.5472 103.128 85.8112 102.947 85.1605 102.584C84.5098 102.211 83.9978 101.688 83.6245 101.016C83.2618 100.333 83.0805 99.5387 83.0805 98.632C83.0805 97.7253 83.2618 96.9307 83.6245 96.248C83.9872 95.5653 84.4938 95.0427 85.1445 94.68C85.7952 94.3173 86.5365 94.136 87.3685 94.136C88.2005 94.136 88.9258 94.3173 89.5445 94.68C90.1738 95.0427 90.6538 95.5333 90.9845 96.152C91.3258 96.76 91.4965 97.4373 91.4965 98.184ZM90.3605 98.152C90.3712 97.5013 90.2378 96.9467 89.9605 96.488C89.6938 96.0293 89.3258 95.6827 88.8565 95.448C88.3872 95.2133 87.8752 95.096 87.3205 95.096C86.4885 95.096 85.7792 95.3627 85.1925 95.896C84.6058 96.4293 84.2805 97.1813 84.2165 98.152H90.3605ZM96.5536 103.128C95.551 103.128 94.7296 102.899 94.0896 102.44C93.4603 101.971 93.1083 101.336 93.0336 100.536H94.1856C94.239 101.027 94.4683 101.427 94.8736 101.736C95.2896 102.035 95.8443 102.184 96.5376 102.184C97.1456 102.184 97.6203 102.04 97.9616 101.752C98.3136 101.464 98.4896 101.107 98.4896 100.68C98.4896 100.381 98.3936 100.136 98.2016 99.944C98.0096 99.752 97.7643 99.6027 97.4656 99.496C97.1776 99.3787 96.783 99.256 96.2816 99.128C95.631 98.9573 95.103 98.7867 94.6976 98.616C94.2923 98.4453 93.9456 98.1947 93.6576 97.864C93.3803 97.5227 93.2416 97.0693 93.2416 96.504C93.2416 96.0773 93.3696 95.6827 93.6256 95.32C93.8816 94.9573 94.2443 94.6693 94.7136 94.456C95.183 94.2427 95.7163 94.136 96.3136 94.136C97.2523 94.136 98.0096 94.376 98.5856 94.856C99.1616 95.3253 99.471 95.976 99.5136 96.808H98.3936C98.3616 96.296 98.159 95.8853 97.7856 95.576C97.423 95.256 96.9216 95.096 96.2816 95.096C95.7163 95.096 95.2576 95.2293 94.9056 95.496C94.5536 95.7627 94.3776 96.0933 94.3776 96.488C94.3776 96.8293 94.479 97.112 94.6816 97.336C94.895 97.5493 95.1563 97.72 95.4656 97.848C95.775 97.9653 96.191 98.0987 96.7136 98.248C97.343 98.4187 97.8443 98.584 98.2176 98.744C98.591 98.904 98.911 99.1387 99.1776 99.448C99.4443 99.7573 99.583 100.168 99.5936 100.68C99.5936 101.149 99.4656 101.571 99.2096 101.944C98.9536 102.307 98.5963 102.595 98.1376 102.808C97.679 103.021 97.151 103.128 96.5536 103.128ZM105.581 98.616C105.581 97.72 105.762 96.936 106.125 96.264C106.487 95.5813 106.983 95.0587 107.613 94.696C108.253 94.3227 108.973 94.136 109.773 94.136C110.541 94.136 111.234 94.3227 111.853 94.696C112.471 95.0693 112.925 95.5547 113.213 96.152V91.16H114.333V103H113.213V101.048C112.946 101.656 112.509 102.157 111.901 102.552C111.293 102.936 110.578 103.128 109.757 103.128C108.957 103.128 108.237 102.941 107.597 102.568C106.967 102.195 106.471 101.667 106.109 100.984C105.757 100.301 105.581 99.512 105.581 98.616ZM113.213 98.632C113.213 97.928 113.069 97.3093 112.781 96.776C112.493 96.2427 112.098 95.832 111.597 95.544C111.106 95.256 110.562 95.112 109.965 95.112C109.346 95.112 108.791 95.2507 108.301 95.528C107.81 95.8053 107.421 96.2107 107.133 96.744C106.855 97.2667 106.717 97.8907 106.717 98.616C106.717 99.3307 106.855 99.96 107.133 100.504C107.421 101.037 107.81 101.448 108.301 101.736C108.791 102.013 109.346 102.152 109.965 102.152C110.562 102.152 111.106 102.008 111.597 101.72C112.098 101.432 112.493 101.021 112.781 100.488C113.069 99.9547 113.213 99.336 113.213 98.632ZM124.793 98.184C124.793 98.568 124.783 98.8613 124.761 99.064H117.513C117.545 99.7253 117.705 100.291 117.993 100.76C118.281 101.229 118.66 101.587 119.129 101.832C119.599 102.067 120.111 102.184 120.665 102.184C121.391 102.184 121.999 102.008 122.489 101.656C122.991 101.304 123.321 100.829 123.481 100.232H124.665C124.452 101.085 123.993 101.784 123.289 102.328C122.596 102.861 121.721 103.128 120.665 103.128C119.844 103.128 119.108 102.947 118.457 102.584C117.807 102.211 117.295 101.688 116.921 101.016C116.559 100.333 116.377 99.5387 116.377 98.632C116.377 97.7253 116.559 96.9307 116.921 96.248C117.284 95.5653 117.791 95.0427 118.441 94.68C119.092 94.3173 119.833 94.136 120.665 94.136C121.497 94.136 122.223 94.3173 122.841 94.68C123.471 95.0427 123.951 95.5333 124.281 96.152C124.623 96.76 124.793 97.4373 124.793 98.184ZM123.657 98.152C123.668 97.5013 123.535 96.9467 123.257 96.488C122.991 96.0293 122.623 95.6827 122.153 95.448C121.684 95.2133 121.172 95.096 120.617 95.096C119.785 95.096 119.076 95.3627 118.489 95.896C117.903 96.4293 117.577 97.1813 117.513 98.152H123.657ZM139.137 98.184C139.137 98.568 139.126 98.8613 139.105 99.064H131.857C131.889 99.7253 132.049 100.291 132.337 100.76C132.625 101.229 133.004 101.587 133.473 101.832C133.942 102.067 134.454 102.184 135.009 102.184C135.734 102.184 136.342 102.008 136.833 101.656C137.334 101.304 137.665 100.829 137.825 100.232H139.009C138.796 101.085 138.337 101.784 137.633 102.328C136.94 102.861 136.065 103.128 135.009 103.128C134.188 103.128 133.452 102.947 132.801 102.584C132.15 102.211 131.638 101.688 131.265 101.016C130.902 100.333 130.721 99.5387 130.721 98.632C130.721 97.7253 130.902 96.9307 131.265 96.248C131.628 95.5653 132.134 95.0427 132.785 94.68C133.436 94.3173 134.177 94.136 135.009 94.136C135.841 94.136 136.566 94.3173 137.185 94.68C137.814 95.0427 138.294 95.5333 138.625 96.152C138.966 96.76 139.137 97.4373 139.137 98.184ZM138.001 98.152C138.012 97.5013 137.878 96.9467 137.601 96.488C137.334 96.0293 136.966 95.6827 136.497 95.448C136.028 95.2133 135.516 95.096 134.961 95.096C134.129 95.096 133.42 95.3627 132.833 95.896C132.246 96.4293 131.921 97.1813 131.857 98.152H138.001ZM146.61 96.6V97.544H140.386V96.6H146.61ZM150.587 96.2C150.875 95.592 151.318 95.096 151.915 94.712C152.523 94.328 153.238 94.136 154.059 94.136C154.859 94.136 155.574 94.3227 156.203 94.696C156.832 95.0587 157.323 95.5813 157.675 96.264C158.038 96.936 158.219 97.72 158.219 98.616C158.219 99.512 158.038 100.301 157.675 100.984C157.323 101.667 156.827 102.195 156.187 102.568C155.558 102.941 154.848 103.128 154.059 103.128C153.227 103.128 152.507 102.941 151.899 102.568C151.302 102.184 150.864 101.688 150.587 101.08V103H149.483V91.16H150.587V96.2ZM157.083 98.616C157.083 97.8907 156.939 97.2667 156.651 96.744C156.374 96.2107 155.99 95.8053 155.499 95.528C155.008 95.2507 154.454 95.112 153.835 95.112C153.238 95.112 152.688 95.256 152.187 95.544C151.696 95.832 151.307 96.2427 151.019 96.776C150.731 97.3093 150.587 97.928 150.587 98.632C150.587 99.336 150.731 99.9547 151.019 100.488C151.307 101.021 151.696 101.432 152.187 101.72C152.688 102.008 153.238 102.152 153.835 102.152C154.454 102.152 155.008 102.013 155.499 101.736C155.99 101.448 156.374 101.037 156.651 100.504C156.939 99.96 157.083 99.3307 157.083 98.616ZM164.104 103.128C163.283 103.128 162.541 102.947 161.88 102.584C161.229 102.211 160.712 101.688 160.328 101.016C159.955 100.333 159.768 99.5387 159.768 98.632C159.768 97.7253 159.96 96.936 160.344 96.264C160.728 95.5813 161.251 95.0587 161.912 94.696C162.573 94.3227 163.315 94.136 164.136 94.136C164.957 94.136 165.699 94.3227 166.36 94.696C167.032 95.0587 167.555 95.5813 167.928 96.264C168.312 96.936 168.504 97.7253 168.504 98.632C168.504 99.528 168.312 100.317 167.928 101C167.544 101.683 167.016 102.211 166.344 102.584C165.672 102.947 164.925 103.128 164.104 103.128ZM164.104 102.152C164.68 102.152 165.213 102.024 165.704 101.768C166.195 101.501 166.589 101.107 166.888 100.584C167.197 100.051 167.352 99.4 167.352 98.632C167.352 97.864 167.203 97.2187 166.904 96.696C166.605 96.1627 166.211 95.768 165.72 95.512C165.229 95.2453 164.696 95.112 164.12 95.112C163.544 95.112 163.011 95.2453 162.52 95.512C162.029 95.768 161.635 96.1627 161.336 96.696C161.048 97.2187 160.904 97.864 160.904 98.632C160.904 99.4 161.048 100.051 161.336 100.584C161.635 101.107 162.024 101.501 162.504 101.768C162.995 102.024 163.528 102.152 164.104 102.152ZM174.37 103.128C173.548 103.128 172.807 102.947 172.146 102.584C171.495 102.211 170.978 101.688 170.594 101.016C170.22 100.333 170.034 99.5387 170.034 98.632C170.034 97.7253 170.226 96.936 170.61 96.264C170.994 95.5813 171.516 95.0587 172.178 94.696C172.839 94.3227 173.58 94.136 174.402 94.136C175.223 94.136 175.964 94.3227 176.626 94.696C177.298 95.0587 177.82 95.5813 178.194 96.264C178.578 96.936 178.77 97.7253 178.77 98.632C178.77 99.528 178.578 100.317 178.194 101C177.81 101.683 177.282 102.211 176.61 102.584C175.938 102.947 175.191 103.128 174.37 103.128ZM174.37 102.152C174.946 102.152 175.479 102.024 175.97 101.768C176.46 101.501 176.855 101.107 177.154 100.584C177.463 100.051 177.618 99.4 177.618 98.632C177.618 97.864 177.468 97.2187 177.17 96.696C176.871 96.1627 176.476 95.768 175.986 95.512C175.495 95.2453 174.962 95.112 174.386 95.112C173.81 95.112 173.276 95.2453 172.786 95.512C172.295 95.768 171.9 96.1627 171.602 96.696C171.314 97.2187 171.17 97.864 171.17 98.632C171.17 99.4 171.314 100.051 171.602 100.584C171.9 101.107 172.29 101.501 172.77 101.768C173.26 102.024 173.794 102.152 174.37 102.152ZM185.531 103L181.931 99.08V103H180.811V91.16H181.931V98.168L185.451 94.264H187.019L182.875 98.616L187.051 103H185.531ZM191.507 103.128C190.504 103.128 189.683 102.899 189.043 102.44C188.413 101.971 188.061 101.336 187.987 100.536H189.139C189.192 101.027 189.421 101.427 189.827 101.736C190.243 102.035 190.797 102.184 191.491 102.184C192.099 102.184 192.573 102.04 192.915 101.752C193.267 101.464 193.443 101.107 193.443 100.68C193.443 100.381 193.347 100.136 193.155 99.944C192.963 99.752 192.717 99.6027 192.419 99.496C192.131 99.3787 191.736 99.256 191.235 99.128C190.584 98.9573 190.056 98.7867 189.651 98.616C189.245 98.4453 188.899 98.1947 188.611 97.864C188.333 97.5227 188.195 97.0693 188.195 96.504C188.195 96.0773 188.323 95.6827 188.579 95.32C188.835 94.9573 189.197 94.6693 189.667 94.456C190.136 94.2427 190.669 94.136 191.267 94.136C192.205 94.136 192.963 94.376 193.539 94.856C194.115 95.3253 194.424 95.976 194.467 96.808H193.347C193.315 96.296 193.112 95.8853 192.739 95.576C192.376 95.256 191.875 95.096 191.235 95.096C190.669 95.096 190.211 95.2293 189.859 95.496C189.507 95.7627 189.331 96.0933 189.331 96.488C189.331 96.8293 189.432 97.112 189.635 97.336C189.848 97.5493 190.109 97.72 190.419 97.848C190.728 97.9653 191.144 98.0987 191.667 98.248C192.296 98.4187 192.797 98.584 193.171 98.744C193.544 98.904 193.864 99.1387 194.131 99.448C194.397 99.7573 194.536 100.168 194.547 100.68C194.547 101.149 194.419 101.571 194.163 101.944C193.907 102.307 193.549 102.595 193.091 102.808C192.632 103.021 192.104 103.128 191.507 103.128ZM197.679 101.144L196.015 105.336H195.247L196.431 101.144H197.679ZM207.907 94.104C208.953 94.104 209.806 94.4293 210.467 95.08C211.129 95.72 211.459 96.6533 211.459 97.88V103H210.355V98.008C210.355 97.0587 210.115 96.3333 209.635 95.832C209.166 95.3307 208.521 95.08 207.699 95.08C206.857 95.08 206.185 95.3467 205.683 95.88C205.182 96.4133 204.931 97.1973 204.931 98.232V103H203.811V94.264H204.931V95.752C205.209 95.2187 205.609 94.8133 206.131 94.536C206.654 94.248 207.246 94.104 207.907 94.104ZM217.76 103.128C216.939 103.128 216.198 102.947 215.536 102.584C214.886 102.211 214.368 101.688 213.984 101.016C213.611 100.333 213.424 99.5387 213.424 98.632C213.424 97.7253 213.616 96.936 214 96.264C214.384 95.5813 214.907 95.0587 215.568 94.696C216.23 94.3227 216.971 94.136 217.792 94.136C218.614 94.136 219.355 94.3227 220.016 94.696C220.688 95.0587 221.211 95.5813 221.584 96.264C221.968 96.936 222.16 97.7253 222.16 98.632C222.16 99.528 221.968 100.317 221.584 101C221.2 101.683 220.672 102.211 220 102.584C219.328 102.947 218.582 103.128 217.76 103.128ZM217.76 102.152C218.336 102.152 218.87 102.024 219.36 101.768C219.851 101.501 220.246 101.107 220.544 100.584C220.854 100.051 221.008 99.4 221.008 98.632C221.008 97.864 220.859 97.2187 220.56 96.696C220.262 96.1627 219.867 95.768 219.376 95.512C218.886 95.2453 218.352 95.112 217.776 95.112C217.2 95.112 216.667 95.2453 216.176 95.512C215.686 95.768 215.291 96.1627 214.992 96.696C214.704 97.2187 214.56 97.864 214.56 98.632C214.56 99.4 214.704 100.051 214.992 100.584C215.291 101.107 215.68 101.501 216.16 101.768C216.651 102.024 217.184 102.152 217.76 102.152ZM227.306 101.912L230.25 94.264H231.434L227.93 103H226.666L223.162 94.264H224.362L227.306 101.912ZM236.776 103.128C235.955 103.128 235.213 102.947 234.552 102.584C233.901 102.211 233.384 101.688 233 101.016C232.627 100.333 232.44 99.5387 232.44 98.632C232.44 97.7253 232.632 96.936 233.016 96.264C233.4 95.5813 233.923 95.0587 234.584 94.696C235.245 94.3227 235.987 94.136 236.808 94.136C237.629 94.136 238.371 94.3227 239.032 94.696C239.704 95.0587 240.227 95.5813 240.6 96.264C240.984 96.936 241.176 97.7253 241.176 98.632C241.176 99.528 240.984 100.317 240.6 101C240.216 101.683 239.688 102.211 239.016 102.584C238.344 102.947 237.597 103.128 236.776 103.128ZM236.776 102.152C237.352 102.152 237.885 102.024 238.376 101.768C238.867 101.501 239.261 101.107 239.56 100.584C239.869 100.051 240.024 99.4 240.024 98.632C240.024 97.864 239.875 97.2187 239.576 96.696C239.277 96.1627 238.883 95.768 238.392 95.512C237.901 95.2453 237.368 95.112 236.792 95.112C236.216 95.112 235.683 95.2453 235.192 95.512C234.701 95.768 234.307 96.1627 234.008 96.696C233.72 97.2187 233.576 97.864 233.576 98.632C233.576 99.4 233.72 100.051 234.008 100.584C234.307 101.107 234.696 101.501 235.176 101.768C235.667 102.024 236.2 102.152 236.776 102.152ZM246.226 103.128C245.223 103.128 244.402 102.899 243.762 102.44C243.132 101.971 242.78 101.336 242.706 100.536H243.858C243.911 101.027 244.14 101.427 244.546 101.736C244.962 102.035 245.516 102.184 246.21 102.184C246.818 102.184 247.292 102.04 247.634 101.752C247.986 101.464 248.162 101.107 248.162 100.68C248.162 100.381 248.066 100.136 247.874 99.944C247.682 99.752 247.436 99.6027 247.138 99.496C246.85 99.3787 246.455 99.256 245.954 99.128C245.303 98.9573 244.775 98.7867 244.37 98.616C243.964 98.4453 243.618 98.1947 243.33 97.864C243.052 97.5227 242.914 97.0693 242.914 96.504C242.914 96.0773 243.042 95.6827 243.298 95.32C243.554 94.9573 243.916 94.6693 244.386 94.456C244.855 94.2427 245.388 94.136 245.986 94.136C246.924 94.136 247.682 94.376 248.258 94.856C248.834 95.3253 249.143 95.976 249.186 96.808H248.066C248.034 96.296 247.831 95.8853 247.458 95.576C247.095 95.256 246.594 95.096 245.954 95.096C245.388 95.096 244.93 95.2293 244.578 95.496C244.226 95.7627 244.049 96.0933 244.049 96.488C244.049 96.8293 244.151 97.112 244.354 97.336C244.567 97.5493 244.828 97.72 245.138 97.848C245.447 97.9653 245.863 98.0987 246.386 98.248C247.015 98.4187 247.516 98.584 247.89 98.744C248.263 98.904 248.583 99.1387 248.85 99.448C249.116 99.7573 249.255 100.168 249.266 100.68C249.266 101.149 249.138 101.571 248.882 101.944C248.626 102.307 248.268 102.595 247.81 102.808C247.351 103.021 246.823 103.128 246.226 103.128ZM256.884 91.16V103H255.764V91.16H256.884ZM259.981 92.616C259.757 92.616 259.565 92.536 259.405 92.376C259.245 92.216 259.165 92.0187 259.165 91.784C259.165 91.5493 259.245 91.3573 259.405 91.208C259.565 91.048 259.757 90.968 259.981 90.968C260.205 90.968 260.397 91.048 260.557 91.208C260.717 91.3573 260.797 91.5493 260.797 91.784C260.797 92.0187 260.717 92.216 260.557 92.376C260.397 92.536 260.205 92.616 259.981 92.616ZM260.541 94.264V103H259.421V94.264H260.541ZM266.181 101.912L269.125 94.264H270.309L266.805 103H265.541L262.037 94.264H263.237L266.181 101.912ZM272.947 95.816C273.192 95.272 273.566 94.8507 274.067 94.552C274.579 94.2533 275.203 94.104 275.939 94.104V95.272H275.635C274.824 95.272 274.174 95.4907 273.683 95.928C273.192 96.3653 272.947 97.096 272.947 98.12V103H271.827V94.264H272.947V95.816ZM281.448 103.128C280.626 103.128 279.885 102.947 279.224 102.584C278.573 102.211 278.056 101.688 277.672 101.016C277.298 100.333 277.112 99.5387 277.112 98.632C277.112 97.7253 277.304 96.936 277.688 96.264C278.072 95.5813 278.594 95.0587 279.256 94.696C279.917 94.3227 280.658 94.136 281.48 94.136C282.301 94.136 283.042 94.3227 283.704 94.696C284.376 95.0587 284.898 95.5813 285.272 96.264C285.656 96.936 285.848 97.7253 285.848 98.632C285.848 99.528 285.656 100.317 285.272 101C284.888 101.683 284.36 102.211 283.688 102.584C283.016 102.947 282.269 103.128 281.448 103.128ZM281.448 102.152C282.024 102.152 282.557 102.024 283.048 101.768C283.538 101.501 283.933 101.107 284.232 100.584C284.541 100.051 284.696 99.4 284.696 98.632C284.696 97.864 284.546 97.2187 284.248 96.696C283.949 96.1627 283.554 95.768 283.064 95.512C282.573 95.2453 282.04 95.112 281.464 95.112C280.888 95.112 280.354 95.2453 279.864 95.512C279.373 95.768 278.978 96.1627 278.68 96.696C278.392 97.2187 278.248 97.864 278.248 98.632C278.248 99.4 278.392 100.051 278.68 100.584C278.978 101.107 279.368 101.501 279.848 101.768C280.338 102.024 280.872 102.152 281.448 102.152ZM290.897 103.128C289.895 103.128 289.073 102.899 288.433 102.44C287.804 101.971 287.452 101.336 287.377 100.536H288.529C288.583 101.027 288.812 101.427 289.217 101.736C289.633 102.035 290.188 102.184 290.881 102.184C291.489 102.184 291.964 102.04 292.305 101.752C292.657 101.464 292.833 101.107 292.833 100.68C292.833 100.381 292.737 100.136 292.545 99.944C292.353 99.752 292.108 99.6027 291.809 99.496C291.521 99.3787 291.127 99.256 290.625 99.128C289.975 98.9573 289.447 98.7867 289.041 98.616C288.636 98.4453 288.289 98.1947 288.001 97.864C287.724 97.5227 287.585 97.0693 287.585 96.504C287.585 96.0773 287.713 95.6827 287.969 95.32C288.225 94.9573 288.588 94.6693 289.057 94.456C289.527 94.2427 290.06 94.136 290.657 94.136C291.596 94.136 292.353 94.376 292.929 94.856C293.505 95.3253 293.815 95.976 293.857 96.808H292.737C292.705 96.296 292.503 95.8853 292.129 95.576C291.767 95.256 291.265 95.096 290.625 95.096C290.06 95.096 289.601 95.2293 289.249 95.496C288.897 95.7627 288.721 96.0933 288.721 96.488C288.721 96.8293 288.823 97.112 289.025 97.336C289.239 97.5493 289.5 97.72 289.809 97.848C290.119 97.9653 290.535 98.0987 291.057 98.248C291.687 98.4187 292.188 98.584 292.561 98.744C292.935 98.904 293.255 99.1387 293.521 99.448C293.788 99.7573 293.927 100.168 293.937 100.68C293.937 101.149 293.809 101.571 293.553 101.944C293.297 102.307 292.94 102.595 292.481 102.808C292.023 103.021 291.495 103.128 290.897 103.128ZM297.07 101.144L295.406 105.336H294.638L295.822 101.144H297.07ZM2.384 120.184C2.66133 119.597 3.09867 119.112 3.696 118.728C4.304 118.333 5.024 118.136 5.856 118.136C6.64533 118.136 7.35467 118.323 7.984 118.696C8.624 119.059 9.12 119.581 9.472 120.264C9.83467 120.936 10.016 121.72 10.016 122.616C10.016 123.512 9.83467 124.301 9.472 124.984C9.12 125.667 8.624 126.195 7.984 126.568C7.35467 126.941 6.64533 127.128 5.856 127.128C5.03467 127.128 4.32 126.936 3.712 126.552C3.104 126.157 2.66133 125.667 2.384 125.08V131.128H1.28V118.264H2.384V120.184ZM8.88 122.616C8.88 121.891 8.736 121.267 8.448 120.744C8.17067 120.211 7.78667 119.805 7.296 119.528C6.80533 119.251 6.25067 119.112 5.632 119.112C5.03467 119.112 4.48533 119.256 3.984 119.544C3.49333 119.832 3.104 120.243 2.816 120.776C2.528 121.309 2.384 121.928 2.384 122.632C2.384 123.336 2.528 123.955 2.816 124.488C3.104 125.021 3.49333 125.432 3.984 125.72C4.48533 126.008 5.03467 126.152 5.632 126.152C6.25067 126.152 6.80533 126.013 7.296 125.736C7.78667 125.448 8.17067 125.037 8.448 124.504C8.736 123.96 8.88 123.331 8.88 122.616ZM13.1969 119.816C13.4422 119.272 13.8155 118.851 14.3169 118.552C14.8289 118.253 15.4529 118.104 16.1889 118.104V119.272H15.8849C15.0742 119.272 14.4235 119.491 13.9329 119.928C13.4422 120.365 13.1969 121.096 13.1969 122.12V127H12.0769V118.264H13.1969V119.816ZM21.6978 127.128C20.8764 127.128 20.1351 126.947 19.4738 126.584C18.8231 126.211 18.3058 125.688 17.9218 125.016C17.5484 124.333 17.3618 123.539 17.3618 122.632C17.3618 121.725 17.5538 120.936 17.9378 120.264C18.3218 119.581 18.8444 119.059 19.5058 118.696C20.1671 118.323 20.9084 118.136 21.7298 118.136C22.5511 118.136 23.2924 118.323 23.9538 118.696C24.6258 119.059 25.1484 119.581 25.5218 120.264C25.9058 120.936 26.0978 121.725 26.0978 122.632C26.0978 123.528 25.9058 124.317 25.5218 125C25.1378 125.683 24.6098 126.211 23.9378 126.584C23.2658 126.947 22.5191 127.128 21.6978 127.128ZM21.6978 126.152C22.2738 126.152 22.8071 126.024 23.2978 125.768C23.7884 125.501 24.1831 125.107 24.4818 124.584C24.7911 124.051 24.9458 123.4 24.9458 122.632C24.9458 121.864 24.7964 121.219 24.4978 120.696C24.1991 120.163 23.8044 119.768 23.3138 119.512C22.8231 119.245 22.2898 119.112 21.7138 119.112C21.1378 119.112 20.6044 119.245 20.1138 119.512C19.6231 119.768 19.2284 120.163 18.9298 120.696C18.6418 121.219 18.4978 121.864 18.4978 122.632C18.4978 123.4 18.6418 124.051 18.9298 124.584C19.2284 125.107 19.6178 125.501 20.0978 125.768C20.5884 126.024 21.1218 126.152 21.6978 126.152ZM38.5394 118.104C39.5634 118.104 40.3954 118.429 41.0354 119.08C41.686 119.72 42.0114 120.653 42.0114 121.88V127H40.9074V122.008C40.9074 121.059 40.678 120.333 40.2194 119.832C39.7607 119.331 39.1367 119.08 38.3474 119.08C37.526 119.08 36.87 119.352 36.3794 119.896C35.8887 120.44 35.6434 121.229 35.6434 122.264V127H34.5394V122.008C34.5394 121.059 34.31 120.333 33.8514 119.832C33.3927 119.331 32.7634 119.08 31.9634 119.08C31.142 119.08 30.486 119.352 29.9954 119.896C29.5047 120.44 29.2594 121.229 29.2594 122.264V127H28.1394V118.264H29.2594V119.768C29.5367 119.224 29.9314 118.813 30.4434 118.536C30.9554 118.248 31.526 118.104 32.1554 118.104C32.9127 118.104 33.574 118.285 34.1394 118.648C34.7154 119.011 35.1314 119.544 35.3874 120.248C35.622 119.555 36.022 119.027 36.5874 118.664C37.1634 118.291 37.814 118.104 38.5394 118.104ZM48.3228 127.128C47.5014 127.128 46.7601 126.947 46.0988 126.584C45.4481 126.211 44.9308 125.688 44.5468 125.016C44.1734 124.333 43.9868 123.539 43.9868 122.632C43.9868 121.725 44.1788 120.936 44.5628 120.264C44.9468 119.581 45.4694 119.059 46.1308 118.696C46.7921 118.323 47.5334 118.136 48.3548 118.136C49.1761 118.136 49.9174 118.323 50.5788 118.696C51.2508 119.059 51.7734 119.581 52.1468 120.264C52.5308 120.936 52.7228 121.725 52.7228 122.632C52.7228 123.528 52.5308 124.317 52.1468 125C51.7628 125.683 51.2348 126.211 50.5628 126.584C49.8908 126.947 49.1441 127.128 48.3228 127.128ZM48.3228 126.152C48.8988 126.152 49.4321 126.024 49.9228 125.768C50.4134 125.501 50.8081 125.107 51.1068 124.584C51.4161 124.051 51.5708 123.4 51.5708 122.632C51.5708 121.864 51.4214 121.219 51.1228 120.696C50.8241 120.163 50.4294 119.768 49.9388 119.512C49.4481 119.245 48.9148 119.112 48.3388 119.112C47.7628 119.112 47.2294 119.245 46.7388 119.512C46.2481 119.768 45.8534 120.163 45.5548 120.696C45.2668 121.219 45.1228 121.864 45.1228 122.632C45.1228 123.4 45.2668 124.051 45.5548 124.584C45.8534 125.107 46.2428 125.501 46.7228 125.768C47.2134 126.024 47.7468 126.152 48.3228 126.152ZM58.4924 126.184C59.2284 126.184 59.8417 126.008 60.3324 125.656C60.8337 125.293 61.159 124.792 61.3084 124.152H62.5084C62.3164 124.995 61.9004 125.683 61.2604 126.216C60.631 126.749 59.831 127.048 58.8604 127.112V128.072C59.4897 128.051 59.9857 128.168 60.3484 128.424C60.7217 128.691 60.9084 129.069 60.9084 129.56C60.9084 130.04 60.7377 130.419 60.3964 130.696C60.055 130.984 59.6017 131.128 59.0364 131.128H57.4364V130.376H58.8124C59.207 130.376 59.495 130.307 59.6764 130.168C59.8684 130.04 59.9644 129.837 59.9644 129.56C59.9644 129.048 59.5804 128.792 58.8124 128.792H58.0764V127.112C57.3297 127.048 56.6684 126.829 56.0924 126.456C55.5164 126.072 55.063 125.555 54.7324 124.904C54.4124 124.243 54.2524 123.485 54.2524 122.632C54.2524 121.725 54.4337 120.936 54.7964 120.264C55.159 119.581 55.6604 119.059 56.3004 118.696C56.9404 118.323 57.671 118.136 58.4924 118.136C59.5697 118.136 60.455 118.403 61.1484 118.936C61.8524 119.469 62.3057 120.195 62.5084 121.112H61.3084C61.159 120.483 60.8337 119.992 60.3324 119.64C59.8417 119.277 59.2284 119.096 58.4924 119.096C57.9057 119.096 57.3777 119.229 56.9084 119.496C56.439 119.763 56.0657 120.163 55.7884 120.696C55.5217 121.219 55.3884 121.864 55.3884 122.632C55.3884 123.4 55.5217 124.051 55.7884 124.584C56.0657 125.117 56.439 125.517 56.9084 125.784C57.3777 126.051 57.9057 126.184 58.4924 126.184ZM68.4009 127.128C67.5795 127.128 66.8382 126.947 66.1769 126.584C65.5262 126.211 65.0089 125.688 64.6249 125.016C64.2515 124.333 64.0649 123.539 64.0649 122.632C64.0649 121.725 64.2569 120.936 64.6409 120.264C65.0249 119.581 65.5475 119.059 66.2089 118.696C66.8702 118.323 67.6115 118.136 68.4329 118.136C69.2542 118.136 69.9955 118.323 70.6569 118.696C71.3289 119.059 71.8515 119.581 72.2249 120.264C72.6089 120.936 72.8009 121.725 72.8009 122.632C72.8009 123.528 72.6089 124.317 72.2249 125C71.8409 125.683 71.3129 126.211 70.6409 126.584C69.9689 126.947 69.2222 127.128 68.4009 127.128ZM68.4009 126.152C68.9769 126.152 69.5102 126.024 70.0009 125.768C70.4915 125.501 70.8862 125.107 71.1849 124.584C71.4942 124.051 71.6489 123.4 71.6489 122.632C71.6489 121.864 71.4995 121.219 71.2009 120.696C70.9022 120.163 70.5075 119.768 70.0169 119.512C69.5262 119.245 68.9929 119.112 68.4169 119.112C67.8409 119.112 67.3075 119.245 66.8169 119.512C66.3262 119.768 65.9315 120.163 65.6329 120.696C65.3449 121.219 65.2009 121.864 65.2009 122.632C65.2009 123.4 65.3449 124.051 65.6329 124.584C65.9315 125.107 66.3209 125.501 66.8009 125.768C67.2915 126.024 67.8249 126.152 68.4009 126.152ZM66.3529 117.224C66.4169 116.744 66.5715 116.376 66.8169 116.12C67.0622 115.864 67.3769 115.736 67.7609 115.736C67.9529 115.736 68.1182 115.773 68.2569 115.848C68.3955 115.912 68.5609 116.008 68.7529 116.136C68.9129 116.253 69.0515 116.344 69.1689 116.408C69.2862 116.461 69.4142 116.488 69.5529 116.488C69.7342 116.488 69.8889 116.429 70.0169 116.312C70.1449 116.184 70.2249 116.003 70.2569 115.768H70.9289C70.8862 116.237 70.7315 116.605 70.4649 116.872C70.2089 117.128 69.8889 117.256 69.5049 117.256C69.3022 117.256 69.1262 117.224 68.9769 117.16C68.8382 117.085 68.6729 116.979 68.4809 116.84C68.3315 116.723 68.1982 116.637 68.0809 116.584C67.9742 116.531 67.8515 116.504 67.7129 116.504C67.3289 116.504 67.1049 116.744 67.0409 117.224H66.3529ZM82.7465 122.184C82.7465 122.568 82.7358 122.861 82.7145 123.064H75.4665C75.4985 123.725 75.6585 124.291 75.9465 124.76C76.2345 125.229 76.6132 125.587 77.0825 125.832C77.5518 126.067 78.0638 126.184 78.6185 126.184C79.3438 126.184 79.9518 126.008 80.4425 125.656C80.9438 125.304 81.2745 124.829 81.4345 124.232H82.6185C82.4052 125.085 81.9465 125.784 81.2425 126.328C80.5492 126.861 79.6745 127.128 78.6185 127.128C77.7972 127.128 77.0612 126.947 76.4105 126.584C75.7598 126.211 75.2478 125.688 74.8745 125.016C74.5118 124.333 74.3305 123.539 74.3305 122.632C74.3305 121.725 74.5118 120.931 74.8745 120.248C75.2372 119.565 75.7438 119.043 76.3945 118.68C77.0452 118.317 77.7865 118.136 78.6185 118.136C79.4505 118.136 80.1758 118.317 80.7945 118.68C81.4238 119.043 81.9038 119.533 82.2345 120.152C82.5758 120.76 82.7465 121.437 82.7465 122.184ZM81.6105 122.152C81.6212 121.501 81.4878 120.947 81.2105 120.488C80.9438 120.029 80.5758 119.683 80.1065 119.448C79.6372 119.213 79.1252 119.096 78.5705 119.096C77.7385 119.096 77.0292 119.363 76.4425 119.896C75.8558 120.429 75.5305 121.181 75.4665 122.152H81.6105ZM87.8036 127.128C86.801 127.128 85.9796 126.899 85.3396 126.44C84.7103 125.971 84.3583 125.336 84.2836 124.536H85.4356C85.489 125.027 85.7183 125.427 86.1236 125.736C86.5396 126.035 87.0943 126.184 87.7876 126.184C88.3956 126.184 88.8703 126.04 89.2116 125.752C89.5636 125.464 89.7396 125.107 89.7396 124.68C89.7396 124.381 89.6436 124.136 89.4516 123.944C89.2596 123.752 89.0143 123.603 88.7156 123.496C88.4276 123.379 88.033 123.256 87.5316 123.128C86.881 122.957 86.353 122.787 85.9476 122.616C85.5423 122.445 85.1956 122.195 84.9076 121.864C84.6303 121.523 84.4916 121.069 84.4916 120.504C84.4916 120.077 84.6196 119.683 84.8756 119.32C85.1316 118.957 85.4943 118.669 85.9636 118.456C86.433 118.243 86.9663 118.136 87.5636 118.136C88.5023 118.136 89.2596 118.376 89.8356 118.856C90.4116 119.325 90.721 119.976 90.7636 120.808H89.6436C89.6116 120.296 89.409 119.885 89.0356 119.576C88.673 119.256 88.1716 119.096 87.5316 119.096C86.9663 119.096 86.5076 119.229 86.1556 119.496C85.8036 119.763 85.6276 120.093 85.6276 120.488C85.6276 120.829 85.729 121.112 85.9316 121.336C86.145 121.549 86.4063 121.72 86.7156 121.848C87.025 121.965 87.441 122.099 87.9636 122.248C88.593 122.419 89.0943 122.584 89.4676 122.744C89.841 122.904 90.161 123.139 90.4276 123.448C90.6943 123.757 90.833 124.168 90.8436 124.68C90.8436 125.149 90.7156 125.571 90.4596 125.944C90.2036 126.307 89.8463 126.595 89.3876 126.808C88.929 127.021 88.401 127.128 87.8036 127.128ZM105.247 122.184C105.247 122.568 105.236 122.861 105.215 123.064H97.9665C97.9985 123.725 98.1585 124.291 98.4465 124.76C98.7345 125.229 99.1132 125.587 99.5825 125.832C100.052 126.067 100.564 126.184 101.119 126.184C101.844 126.184 102.452 126.008 102.943 125.656C103.444 125.304 103.775 124.829 103.935 124.232H105.119C104.905 125.085 104.447 125.784 103.743 126.328C103.049 126.861 102.175 127.128 101.119 127.128C100.297 127.128 99.5612 126.947 98.9105 126.584C98.2598 126.211 97.7478 125.688 97.3745 125.016C97.0118 124.333 96.8305 123.539 96.8305 122.632C96.8305 121.725 97.0118 120.931 97.3745 120.248C97.7372 119.565 98.2438 119.043 98.8945 118.68C99.5452 118.317 100.287 118.136 101.119 118.136C101.951 118.136 102.676 118.317 103.295 118.68C103.924 119.043 104.404 119.533 104.735 120.152C105.076 120.76 105.247 121.437 105.247 122.184ZM104.111 122.152C104.121 121.501 103.988 120.947 103.711 120.488C103.444 120.029 103.076 119.683 102.607 119.448C102.137 119.213 101.625 119.096 101.071 119.096C100.239 119.096 99.5292 119.363 98.9425 119.896C98.3558 120.429 98.0305 121.181 97.9665 122.152H104.111ZM115.51 127.128C114.689 127.128 113.948 126.947 113.286 126.584C112.636 126.211 112.118 125.688 111.734 125.016C111.361 124.333 111.174 123.539 111.174 122.632C111.174 121.725 111.366 120.936 111.75 120.264C112.134 119.581 112.657 119.059 113.318 118.696C113.98 118.323 114.721 118.136 115.542 118.136C116.364 118.136 117.105 118.323 117.766 118.696C118.438 119.059 118.961 119.581 119.334 120.264C119.718 120.936 119.91 121.725 119.91 122.632C119.91 123.528 119.718 124.317 119.334 125C118.95 125.683 118.422 126.211 117.75 126.584C117.078 126.947 116.332 127.128 115.51 127.128ZM115.51 126.152C116.086 126.152 116.62 126.024 117.11 125.768C117.601 125.501 117.996 125.107 118.294 124.584C118.604 124.051 118.758 123.4 118.758 122.632C118.758 121.864 118.609 121.219 118.31 120.696C118.012 120.163 117.617 119.768 117.126 119.512C116.636 119.245 116.102 119.112 115.526 119.112C114.95 119.112 114.417 119.245 113.926 119.512C113.436 119.768 113.041 120.163 112.742 120.696C112.454 121.219 112.31 121.864 112.31 122.632C112.31 123.4 112.454 124.051 112.742 124.584C113.041 125.107 113.43 125.501 113.91 125.768C114.401 126.024 114.934 126.152 115.51 126.152ZM129.52 118.264V127H128.4V125.464C128.144 126.008 127.749 126.424 127.216 126.712C126.683 127 126.085 127.144 125.424 127.144C124.379 127.144 123.525 126.824 122.864 126.184C122.203 125.533 121.872 124.595 121.872 123.368V118.264H122.976V123.24C122.976 124.189 123.211 124.915 123.68 125.416C124.16 125.917 124.811 126.168 125.632 126.168C126.475 126.168 127.147 125.901 127.648 125.368C128.149 124.835 128.4 124.051 128.4 123.016V118.264H129.52ZM133.533 119.208V124.632C133.533 125.165 133.634 125.533 133.837 125.736C134.04 125.939 134.397 126.04 134.909 126.04H135.933V127H134.733C133.944 127 133.357 126.819 132.973 126.456C132.589 126.083 132.397 125.475 132.397 124.632V119.208H131.181V118.264H132.397V116.072H133.533V118.264H135.933V119.208H133.533ZM138.9 119.816C139.145 119.272 139.519 118.851 140.02 118.552C140.532 118.253 141.156 118.104 141.892 118.104V119.272H141.588C140.777 119.272 140.127 119.491 139.636 119.928C139.145 120.365 138.9 121.096 138.9 122.12V127H137.78V118.264H138.9V119.816ZM147.401 127.128C146.58 127.128 145.838 126.947 145.177 126.584C144.526 126.211 144.009 125.688 143.625 125.016C143.252 124.333 143.065 123.539 143.065 122.632C143.065 121.725 143.257 120.936 143.641 120.264C144.025 119.581 144.548 119.059 145.209 118.696C145.87 118.323 146.612 118.136 147.433 118.136C148.254 118.136 148.996 118.323 149.657 118.696C150.329 119.059 150.852 119.581 151.225 120.264C151.609 120.936 151.801 121.725 151.801 122.632C151.801 123.528 151.609 124.317 151.225 125C150.841 125.683 150.313 126.211 149.641 126.584C148.969 126.947 148.222 127.128 147.401 127.128ZM147.401 126.152C147.977 126.152 148.51 126.024 149.001 125.768C149.492 125.501 149.886 125.107 150.185 124.584C150.494 124.051 150.649 123.4 150.649 122.632C150.649 121.864 150.5 121.219 150.201 120.696C149.902 120.163 149.508 119.768 149.017 119.512C148.526 119.245 147.993 119.112 147.417 119.112C146.841 119.112 146.308 119.245 145.817 119.512C145.326 119.768 144.932 120.163 144.633 120.696C144.345 121.219 144.201 121.864 144.201 122.632C144.201 123.4 144.345 124.051 144.633 124.584C144.932 125.107 145.321 125.501 145.801 125.768C146.292 126.024 146.825 126.152 147.401 126.152ZM156.851 127.128C155.848 127.128 155.027 126.899 154.387 126.44C153.757 125.971 153.405 125.336 153.331 124.536H154.483C154.536 125.027 154.765 125.427 155.171 125.736C155.587 126.035 156.141 126.184 156.835 126.184C157.443 126.184 157.917 126.04 158.259 125.752C158.611 125.464 158.787 125.107 158.787 124.68C158.787 124.381 158.691 124.136 158.499 123.944C158.307 123.752 158.061 123.603 157.763 123.496C157.475 123.379 157.08 123.256 156.579 123.128C155.928 122.957 155.4 122.787 154.995 122.616C154.589 122.445 154.243 122.195 153.955 121.864C153.677 121.523 153.539 121.069 153.539 120.504C153.539 120.077 153.667 119.683 153.923 119.32C154.179 118.957 154.541 118.669 155.011 118.456C155.48 118.243 156.013 118.136 156.611 118.136C157.549 118.136 158.307 118.376 158.883 118.856C159.459 119.325 159.768 119.976 159.811 120.808H158.691C158.659 120.296 158.456 119.885 158.083 119.576C157.72 119.256 157.219 119.096 156.579 119.096C156.013 119.096 155.555 119.229 155.203 119.496C154.851 119.763 154.674 120.093 154.674 120.488C154.674 120.829 154.776 121.112 154.979 121.336C155.192 121.549 155.453 121.72 155.763 121.848C156.072 121.965 156.488 122.099 157.011 122.248C157.64 122.419 158.141 122.584 158.515 122.744C158.888 122.904 159.208 123.139 159.475 123.448C159.741 123.757 159.88 124.168 159.891 124.68C159.891 125.149 159.763 125.571 159.507 125.944C159.251 126.307 158.893 126.595 158.435 126.808C157.976 127.021 157.448 127.128 156.851 127.128ZM162.191 127.08C161.956 127.08 161.759 127 161.599 126.84C161.449 126.68 161.375 126.483 161.375 126.248C161.375 126.013 161.449 125.821 161.599 125.672C161.759 125.512 161.956 125.432 162.191 125.432C162.415 125.432 162.601 125.512 162.751 125.672C162.911 125.821 162.991 126.013 162.991 126.248C162.991 126.483 162.911 126.68 162.751 126.84C162.601 127 162.415 127.08 162.191 127.08Z" fill="url(#paint0_linear_115_7239)"/>
<path d="M11.616 9.32V11.552H4.536V16.472H10.056V18.704H4.536V26H1.8V9.32H11.616ZM15.5436 11.024C15.0476 11.024 14.6316 10.856 14.2956 10.52C13.9596 10.184 13.7916 9.768 13.7916 9.272C13.7916 8.776 13.9596 8.36 14.2956 8.024C14.6316 7.688 15.0476 7.52 15.5436 7.52C16.0236 7.52 16.4316 7.688 16.7676 8.024C17.1036 8.36 17.2716 8.776 17.2716 9.272C17.2716 9.768 17.1036 10.184 16.7676 10.52C16.4316 10.856 16.0236 11.024 15.5436 11.024ZM16.8876 12.776V26H14.1516V12.776H16.8876ZM19.5677 19.328C19.5677 18 19.8397 16.824 20.3837 15.8C20.9437 14.776 21.6957 13.984 22.6397 13.424C23.5997 12.848 24.6637 12.56 25.8317 12.56C26.8557 12.56 27.7597 12.768 28.5437 13.184C29.3437 13.6 29.9597 14.104 30.3917 14.696V12.776H33.1517V32.288H30.3917V24.08C29.9597 24.672 29.3357 25.176 28.5197 25.592C27.7037 26.008 26.7757 26.216 25.7357 26.216C24.5997 26.216 23.5597 25.928 22.6157 25.352C21.6877 24.76 20.9437 23.944 20.3837 22.904C19.8397 21.848 19.5677 20.656 19.5677 19.328ZM30.3917 19.376C30.3917 18.464 30.1997 17.672 29.8157 17C29.4477 16.328 28.9597 15.816 28.3517 15.464C27.7437 15.112 27.0877 14.936 26.3837 14.936C25.6797 14.936 25.0237 15.112 24.4157 15.464C23.8077 15.8 23.3117 16.304 22.9277 16.976C22.5597 17.632 22.3757 18.416 22.3757 19.328C22.3757 20.24 22.5597 21.04 22.9277 21.728C23.3117 22.416 23.8077 22.944 24.4157 23.312C25.0397 23.664 25.6957 23.84 26.3837 23.84C27.0877 23.84 27.7437 23.664 28.3517 23.312C28.9597 22.96 29.4477 22.448 29.8157 21.776C30.1997 21.088 30.3917 20.288 30.3917 19.376ZM48.7213 12.776V26H45.9853V24.44C45.5533 24.984 44.9853 25.416 44.2813 25.736C43.5933 26.04 42.8573 26.192 42.0733 26.192C41.0333 26.192 40.0973 25.976 39.2653 25.544C38.4493 25.112 37.8013 24.472 37.3213 23.624C36.8573 22.776 36.6253 21.752 36.6253 20.552V12.776H39.3373V20.144C39.3373 21.328 39.6333 22.24 40.2253 22.88C40.8173 23.504 41.6253 23.816 42.6493 23.816C43.6733 23.816 44.4813 23.504 45.0733 22.88C45.6813 22.24 45.9853 21.328 45.9853 20.144V12.776H48.7213ZM64.4513 19.064C64.4513 19.56 64.4193 20.008 64.3553 20.408H54.2513C54.3313 21.464 54.7233 22.312 55.4273 22.952C56.1313 23.592 56.9953 23.912 58.0193 23.912C59.4913 23.912 60.5313 23.296 61.1393 22.064H64.0912C63.6913 23.28 62.9633 24.28 61.9073 25.064C60.8673 25.832 59.5713 26.216 58.0193 26.216C56.7553 26.216 55.6193 25.936 54.6113 25.376C53.6193 24.8 52.8353 24 52.2593 22.976C51.6993 21.936 51.4193 20.736 51.4193 19.376C51.4193 18.016 51.6913 16.824 52.2353 15.8C52.7953 14.76 53.5713 13.96 54.5633 13.4C55.5713 12.84 56.7233 12.56 58.0193 12.56C59.2673 12.56 60.3793 12.832 61.3553 13.376C62.3313 13.92 63.0913 14.688 63.6353 15.68C64.1793 16.656 64.4513 17.784 64.4513 19.064ZM61.5953 18.2C61.5793 17.192 61.2193 16.384 60.5153 15.776C59.8113 15.168 58.9393 14.864 57.8993 14.864C56.9553 14.864 56.1473 15.168 55.4753 15.776C54.8033 16.368 54.4033 17.176 54.2753 18.2H61.5953ZM76.1141 14.72C76.5781 14.112 77.2101 13.6 78.0101 13.184C78.8101 12.768 79.7141 12.56 80.7221 12.56C81.8741 12.56 82.9221 12.848 83.8661 13.424C84.8261 13.984 85.5781 14.776 86.1221 15.8C86.6661 16.824 86.9381 18 86.9381 19.328C86.9381 20.656 86.6661 21.848 86.1221 22.904C85.5781 23.944 84.8261 24.76 83.8661 25.352C82.9221 25.928 81.8741 26.216 80.7221 26.216C79.7141 26.216 78.8181 26.016 78.0341 25.616C77.2501 25.2 76.6101 24.688 76.1141 24.08V32.288H73.3781V12.776H76.1141V14.72ZM84.1541 19.328C84.1541 18.416 83.9621 17.632 83.5781 16.976C83.2101 16.304 82.7141 15.8 82.0901 15.464C81.4821 15.112 80.8261 14.936 80.1221 14.936C79.4341 14.936 78.7781 15.112 78.1541 15.464C77.5461 15.816 77.0501 16.328 76.6661 17C76.2981 17.672 76.1141 18.464 76.1141 19.376C76.1141 20.288 76.2981 21.088 76.6661 21.776C77.0501 22.448 77.5461 22.96 78.1541 23.312C78.7781 23.664 79.4341 23.84 80.1221 23.84C80.8261 23.84 81.4821 23.664 82.0901 23.312C82.7141 22.944 83.2101 22.416 83.5781 21.728C83.9621 21.04 84.1541 20.24 84.1541 19.328ZM95.3798 26.216C94.1318 26.216 93.0038 25.936 91.9958 25.376C90.9878 24.8 90.1958 24 89.6198 22.976C89.0438 21.936 88.7558 20.736 88.7558 19.376C88.7558 18.032 89.0518 16.84 89.6438 15.8C90.2358 14.76 91.0438 13.96 92.0678 13.4C93.0918 12.84 94.2358 12.56 95.4998 12.56C96.7638 12.56 97.9078 12.84 98.9318 13.4C99.9558 13.96 100.764 14.76 101.356 15.8C101.948 16.84 102.244 18.032 102.244 19.376C102.244 20.72 101.94 21.912 101.332 22.952C100.724 23.992 99.8918 24.8 98.8358 25.376C97.7958 25.936 96.6438 26.216 95.3798 26.216ZM95.3798 23.84C96.0838 23.84 96.7398 23.672 97.3478 23.336C97.9718 23 98.4758 22.496 98.8598 21.824C99.2438 21.152 99.4358 20.336 99.4358 19.376C99.4358 18.416 99.2518 17.608 98.8838 16.952C98.5158 16.28 98.0278 15.776 97.4198 15.44C96.8118 15.104 96.1558 14.936 95.4518 14.936C94.7478 14.936 94.0918 15.104 93.4838 15.44C92.8918 15.776 92.4198 16.28 92.0678 16.952C91.7158 17.608 91.5398 18.416 91.5398 19.376C91.5398 20.8 91.8998 21.904 92.6198 22.688C93.3558 23.456 94.2758 23.84 95.3798 23.84ZM107.684 14.696C108.084 14.024 108.612 13.504 109.268 13.136C109.94 12.752 110.732 12.56 111.644 12.56V15.392H110.948C109.876 15.392 109.06 15.664 108.5 16.208C107.956 16.752 107.684 17.696 107.684 19.04V26H104.948V12.776H107.684V14.696ZM119.482 19.328C119.482 18 119.754 16.824 120.298 15.8C120.858 14.776 121.61 13.984 122.554 13.424C123.514 12.848 124.578 12.56 125.746 12.56C126.61 12.56 127.458 12.752 128.29 13.136C129.138 13.504 129.81 14 130.306 14.624V8.24H133.066V26H130.306V24.008C129.858 24.648 129.234 25.176 128.434 25.592C127.65 26.008 126.746 26.216 125.722 26.216C124.57 26.216 123.514 25.928 122.554 25.352C121.61 24.76 120.858 23.944 120.298 22.904C119.754 21.848 119.482 20.656 119.482 19.328ZM130.306 19.376C130.306 18.464 130.114 17.672 129.73 17C129.362 16.328 128.874 15.816 128.266 15.464C127.658 15.112 127.002 14.936 126.298 14.936C125.594 14.936 124.938 15.112 124.33 15.464C123.722 15.8 123.226 16.304 122.842 16.976C122.474 17.632 122.29 18.416 122.29 19.328C122.29 20.24 122.474 21.04 122.842 21.728C123.226 22.416 123.722 22.944 124.33 23.312C124.954 23.664 125.61 23.84 126.298 23.84C127.002 23.84 127.658 23.664 128.266 23.312C128.874 22.96 129.362 22.448 129.73 21.776C130.114 21.088 130.306 20.288 130.306 19.376ZM148.779 19.064C148.779 19.56 148.747 20.008 148.683 20.408H138.579C138.659 21.464 139.051 22.312 139.755 22.952C140.459 23.592 141.323 23.912 142.347 23.912C143.819 23.912 144.859 23.296 145.467 22.064H148.419C148.019 23.28 147.291 24.28 146.235 25.064C145.195 25.832 143.899 26.216 142.347 26.216C141.083 26.216 139.947 25.936 138.939 25.376C137.947 24.8 137.163 24 136.587 22.976C136.027 21.936 135.747 20.736 135.747 19.376C135.747 18.016 136.019 16.824 136.563 15.8C137.123 14.76 137.899 13.96 138.891 13.4C139.899 12.84 141.051 12.56 142.347 12.56C143.595 12.56 144.707 12.832 145.683 13.376C146.659 13.92 147.419 14.688 147.963 15.68C148.507 16.656 148.779 17.784 148.779 19.064ZM145.923 18.2C145.907 17.192 145.547 16.384 144.843 15.776C144.139 15.168 143.267 14.864 142.227 14.864C141.283 14.864 140.475 15.168 139.803 15.776C139.131 16.368 138.731 17.176 138.603 18.2H145.923ZM158.144 12.56C159.184 12.56 160.112 12.776 160.928 13.208C161.76 13.64 162.408 14.28 162.872 15.128C163.336 15.976 163.568 17 163.568 18.2V26H160.856V18.608C160.856 17.424 160.56 16.52 159.968 15.896C159.376 15.256 158.568 14.936 157.544 14.936C156.52 14.936 155.704 15.256 155.096 15.896C154.504 16.52 154.208 17.424 154.208 18.608V26H151.472V12.776H154.208V14.288C154.656 13.744 155.224 13.32 155.912 13.016C156.616 12.712 157.36 12.56 158.144 12.56ZM170.25 15.008V22.328C170.25 22.824 170.362 23.184 170.586 23.408C170.826 23.616 171.226 23.72 171.786 23.72H173.466V26H171.306C170.074 26 169.13 25.712 168.474 25.136C167.818 24.56 167.49 23.624 167.49 22.328V15.008H165.93V12.776H167.49V9.488H170.25V12.776H173.466V15.008H170.25ZM178.724 14.696C179.124 14.024 179.652 13.504 180.308 13.136C180.98 12.752 181.772 12.56 182.684 12.56V15.392H181.988C180.916 15.392 180.1 15.664 179.54 16.208C178.996 16.752 178.724 17.696 178.724 19.04V26H175.988V12.776H178.724V14.696ZM190.934 26.216C189.686 26.216 188.558 25.936 187.55 25.376C186.542 24.8 185.75 24 185.174 22.976C184.598 21.936 184.31 20.736 184.31 19.376C184.31 18.032 184.606 16.84 185.198 15.8C185.79 14.76 186.598 13.96 187.622 13.4C188.646 12.84 189.79 12.56 191.054 12.56C192.318 12.56 193.462 12.84 194.486 13.4C195.51 13.96 196.318 14.76 196.91 15.8C197.502 16.84 197.798 18.032 197.798 19.376C197.798 20.72 197.494 21.912 196.886 22.952C196.278 23.992 195.446 24.8 194.39 25.376C193.35 25.936 192.198 26.216 190.934 26.216ZM190.934 23.84C191.638 23.84 192.294 23.672 192.902 23.336C193.526 23 194.03 22.496 194.414 21.824C194.798 21.152 194.99 20.336 194.99 19.376C194.99 18.416 194.806 17.608 194.438 16.952C194.07 16.28 193.582 15.776 192.974 15.44C192.366 15.104 191.71 14.936 191.006 14.936C190.302 14.936 189.646 15.104 189.038 15.44C188.446 15.776 187.974 16.28 187.622 16.952C187.27 17.608 187.094 18.416 187.094 19.376C187.094 20.8 187.454 21.904 188.174 22.688C188.91 23.456 189.83 23.84 190.934 23.84ZM205.826 19.328C205.826 18 206.098 16.824 206.642 15.8C207.202 14.776 207.954 13.984 208.898 13.424C209.858 12.848 210.922 12.56 212.09 12.56C212.954 12.56 213.802 12.752 214.634 13.136C215.482 13.504 216.154 14 216.65 14.624V8.24H219.41V26H216.65V24.008C216.202 24.648 215.578 25.176 214.778 25.592C213.994 26.008 213.09 26.216 212.066 26.216C210.914 26.216 209.858 25.928 208.898 25.352C207.954 24.76 207.202 23.944 206.642 22.904C206.098 21.848 205.826 20.656 205.826 19.328ZM216.65 19.376C216.65 18.464 216.458 17.672 216.074 17C215.706 16.328 215.218 15.816 214.61 15.464C214.002 15.112 213.346 14.936 212.642 14.936C211.938 14.936 211.282 15.112 210.674 15.464C210.066 15.8 209.57 16.304 209.186 16.976C208.818 17.632 208.634 18.416 208.634 19.328C208.634 20.24 208.818 21.04 209.186 21.728C209.57 22.416 210.066 22.944 210.674 23.312C211.298 23.664 211.954 23.84 212.642 23.84C213.346 23.84 214.002 23.664 214.61 23.312C215.218 22.96 215.706 22.448 216.074 21.776C216.458 21.088 216.65 20.288 216.65 19.376ZM222.091 19.328C222.091 18 222.363 16.824 222.907 15.8C223.467 14.776 224.219 13.984 225.163 13.424C226.123 12.848 227.179 12.56 228.331 12.56C229.371 12.56 230.275 12.768 231.043 13.184C231.827 13.584 232.451 14.088 232.915 14.696V12.776H235.675V26H232.915V24.032C232.451 24.656 231.819 25.176 231.019 25.592C230.219 26.008 229.307 26.216 228.283 26.216C227.147 26.216 226.107 25.928 225.163 25.352C224.219 24.76 223.467 23.944 222.907 22.904C222.363 21.848 222.091 20.656 222.091 19.328ZM232.915 19.376C232.915 18.464 232.723 17.672 232.339 17C231.971 16.328 231.483 15.816 230.875 15.464C230.267 15.112 229.611 14.936 228.907 14.936C228.203 14.936 227.547 15.112 226.939 15.464C226.331 15.8 225.835 16.304 225.451 16.976C225.083 17.632 224.899 18.416 224.899 19.328C224.899 20.24 225.083 21.04 225.451 21.728C225.835 22.416 226.331 22.944 226.939 23.312C227.563 23.664 228.219 23.84 228.907 23.84C229.611 23.84 230.267 23.664 230.875 23.312C231.483 22.96 231.971 22.448 232.339 21.776C232.723 21.088 232.915 20.288 232.915 19.376ZM244.069 26.216C243.029 26.216 242.093 26.032 241.261 25.664C240.445 25.28 239.797 24.768 239.317 24.128C238.837 23.472 238.581 22.744 238.549 21.944H241.381C241.429 22.504 241.693 22.976 242.173 23.36C242.669 23.728 243.285 23.912 244.021 23.912C244.789 23.912 245.381 23.768 245.797 23.48C246.229 23.176 246.445 22.792 246.445 22.328C246.445 21.832 246.205 21.464 245.725 21.224C245.261 20.984 244.517 20.72 243.493 20.432C242.501 20.16 241.693 19.896 241.069 19.64C240.445 19.384 239.901 18.992 239.437 18.464C238.989 17.936 238.765 17.24 238.765 16.376C238.765 15.672 238.973 15.032 239.389 14.456C239.805 13.864 240.397 13.4 241.165 13.064C241.949 12.728 242.845 12.56 243.853 12.56C245.357 12.56 246.565 12.944 247.477 13.712C248.405 14.464 248.901 15.496 248.965 16.808H246.229C246.181 16.216 245.941 15.744 245.509 15.392C245.077 15.04 244.493 14.864 243.757 14.864C243.037 14.864 242.485 15 242.101 15.272C241.717 15.544 241.525 15.904 241.525 16.352C241.525 16.704 241.653 17 241.909 17.24C242.165 17.48 242.477 17.672 242.845 17.816C243.213 17.944 243.757 18.112 244.477 18.32C245.437 18.576 246.221 18.84 246.829 19.112C247.453 19.368 247.989 19.752 248.437 20.264C248.885 20.776 249.117 21.456 249.133 22.304C249.133 23.056 248.925 23.728 248.509 24.32C248.093 24.912 247.501 25.376 246.733 25.712C245.981 26.048 245.093 26.216 244.069 26.216ZM8.472 48.56C9.512 48.56 10.44 48.776 11.256 49.208C12.088 49.64 12.736 50.28 13.2 51.128C13.664 51.976 13.896 53 13.896 54.2V62H11.184V54.608C11.184 53.424 10.888 52.52 10.296 51.896C9.704 51.256 8.896 50.936 7.872 50.936C6.848 50.936 6.032 51.256 5.424 51.896C4.832 52.52 4.536 53.424 4.536 54.608V62H1.8V48.776H4.536V50.288C4.984 49.744 5.552 49.32 6.24 49.016C6.944 48.712 7.688 48.56 8.472 48.56ZM23.1219 62.216C21.8739 62.216 20.7459 61.936 19.7379 61.376C18.7299 60.8 17.9379 60 17.3619 58.976C16.7859 57.936 16.4979 56.736 16.4979 55.376C16.4979 54.032 16.7939 52.84 17.3859 51.8C17.9779 50.76 18.7859 49.96 19.8099 49.4C20.8339 48.84 21.9779 48.56 23.2419 48.56C24.5059 48.56 25.6499 48.84 26.6739 49.4C27.6979 49.96 28.5059 50.76 29.0979 51.8C29.6899 52.84 29.9859 54.032 29.9859 55.376C29.9859 56.72 29.6819 57.912 29.0739 58.952C28.4659 59.992 27.6339 60.8 26.5779 61.376C25.5379 61.936 24.3859 62.216 23.1219 62.216ZM23.1219 59.84C23.8259 59.84 24.4819 59.672 25.0899 59.336C25.7139 59 26.2179 58.496 26.6019 57.824C26.9859 57.152 27.1779 56.336 27.1779 55.376C27.1779 54.416 26.9939 53.608 26.6259 52.952C26.2579 52.28 25.7699 51.776 25.1619 51.44C24.5539 51.104 23.8979 50.936 23.1939 50.936C22.4899 50.936 21.8339 51.104 21.2259 51.44C20.6339 51.776 20.1619 52.28 19.8099 52.952C19.4579 53.608 19.2819 54.416 19.2819 55.376C19.2819 56.8 19.6419 57.904 20.3619 58.688C21.0979 59.456 22.0179 59.84 23.1219 59.84ZM37.8026 59.552L41.5466 48.776H44.4506L39.4106 62H36.1466L31.1306 48.776H34.0586L37.8026 59.552ZM47.9108 47.024C47.4148 47.024 46.9988 46.856 46.6628 46.52C46.3268 46.184 46.1588 45.768 46.1588 45.272C46.1588 44.776 46.3268 44.36 46.6628 44.024C46.9988 43.688 47.4148 43.52 47.9108 43.52C48.3908 43.52 48.7988 43.688 49.1348 44.024C49.4708 44.36 49.6388 44.776 49.6388 45.272C49.6388 45.768 49.4708 46.184 49.1348 46.52C48.7988 46.856 48.3908 47.024 47.9108 47.024ZM49.2548 48.776V62H46.5188V48.776H49.2548ZM51.9349 55.328C51.9349 54 52.2069 52.824 52.7509 51.8C53.3109 50.776 54.0629 49.984 55.0069 49.424C55.9669 48.848 57.0309 48.56 58.1989 48.56C59.0629 48.56 59.9109 48.752 60.7429 49.136C61.5909 49.504 62.2629 50 62.7589 50.624V44.24H65.5189V62H62.7589V60.008C62.3109 60.648 61.6869 61.176 60.8869 61.592C60.1029 62.008 59.1989 62.216 58.1749 62.216C57.0229 62.216 55.9669 61.928 55.0069 61.352C54.0629 60.76 53.3109 59.944 52.7509 58.904C52.2069 57.848 51.9349 56.656 51.9349 55.328ZM62.7589 55.376C62.7589 54.464 62.5669 53.672 62.1829 53C61.8149 52.328 61.3269 51.816 60.7189 51.464C60.1109 51.112 59.4549 50.936 58.7509 50.936C58.0469 50.936 57.3909 51.112 56.7829 51.464C56.1749 51.8 55.6789 52.304 55.2949 52.976C54.9269 53.632 54.7429 54.416 54.7429 55.328C54.7429 56.24 54.9269 57.04 55.2949 57.728C55.6789 58.416 56.1749 58.944 56.7829 59.312C57.4069 59.664 58.0629 59.84 58.7509 59.84C59.4549 59.84 60.1109 59.664 60.7189 59.312C61.3269 58.96 61.8149 58.448 62.1829 57.776C62.5669 57.088 62.7589 56.288 62.7589 55.376ZM68.2005 55.328C68.2005 54 68.4725 52.824 69.0165 51.8C69.5765 50.776 70.3285 49.984 71.2725 49.424C72.2325 48.848 73.2885 48.56 74.4405 48.56C75.4805 48.56 76.3845 48.768 77.1525 49.184C77.9365 49.584 78.5605 50.088 79.0245 50.696V48.776H81.7845V62H79.0245V60.032C78.5605 60.656 77.9285 61.176 77.1285 61.592C76.3285 62.008 75.4165 62.216 74.3925 62.216C73.2565 62.216 72.2165 61.928 71.2725 61.352C70.3285 60.76 69.5765 59.944 69.0165 58.904C68.4725 57.848 68.2005 56.656 68.2005 55.328ZM79.0245 55.376C79.0245 54.464 78.8325 53.672 78.4485 53C78.0805 52.328 77.5925 51.816 76.9845 51.464C76.3765 51.112 75.7205 50.936 75.0165 50.936C74.3125 50.936 73.6565 51.112 73.0485 51.464C72.4405 51.8 71.9445 52.304 71.5605 52.976C71.1925 53.632 71.0085 54.416 71.0085 55.328C71.0085 56.24 71.1925 57.04 71.5605 57.728C71.9445 58.416 72.4405 58.944 73.0485 59.312C73.6725 59.664 74.3285 59.84 75.0165 59.84C75.7205 59.84 76.3765 59.664 76.9845 59.312C77.5925 58.96 78.0805 58.448 78.4485 57.776C78.8325 57.088 79.0245 56.288 79.0245 55.376ZM84.4661 55.328C84.4661 54 84.7381 52.824 85.2821 51.8C85.8421 50.776 86.5941 49.984 87.5381 49.424C88.4981 48.848 89.5621 48.56 90.7301 48.56C91.5941 48.56 92.4421 48.752 93.2741 49.136C94.1221 49.504 94.7941 50 95.2901 50.624V44.24H98.0501V62H95.2901V60.008C94.8421 60.648 94.2181 61.176 93.4181 61.592C92.6341 62.008 91.7301 62.216 90.7061 62.216C89.5541 62.216 88.4981 61.928 87.5381 61.352C86.5941 60.76 85.8421 59.944 85.2821 58.904C84.7381 57.848 84.4661 56.656 84.4661 55.328ZM95.2901 55.376C95.2901 54.464 95.0981 53.672 94.7141 53C94.3461 52.328 93.8581 51.816 93.2501 51.464C92.6421 51.112 91.9861 50.936 91.2821 50.936C90.5781 50.936 89.9221 51.112 89.3141 51.464C88.7061 51.8 88.2101 52.304 87.8261 52.976C87.4581 53.632 87.2741 54.416 87.2741 55.328C87.2741 56.24 87.4581 57.04 87.8261 57.728C88.2101 58.416 88.7061 58.944 89.3141 59.312C89.9381 59.664 90.5941 59.84 91.2821 59.84C91.9861 59.84 92.6421 59.664 93.2501 59.312C93.8581 58.96 94.3461 58.448 94.7141 57.776C95.0981 57.088 95.2901 56.288 95.2901 55.376ZM113.764 55.064C113.764 55.56 113.732 56.008 113.668 56.408H103.564C103.644 57.464 104.036 58.312 104.74 58.952C105.444 59.592 106.308 59.912 107.332 59.912C108.804 59.912 109.844 59.296 110.452 58.064H113.404C113.004 59.28 112.276 60.28 111.22 61.064C110.18 61.832 108.884 62.216 107.332 62.216C106.068 62.216 104.932 61.936 103.924 61.376C102.932 60.8 102.148 60 101.572 58.976C101.012 57.936 100.732 56.736 100.732 55.376C100.732 54.016 101.004 52.824 101.548 51.8C102.108 50.76 102.884 49.96 103.876 49.4C104.884 48.84 106.036 48.56 107.332 48.56C108.58 48.56 109.692 48.832 110.668 49.376C111.644 49.92 112.404 50.688 112.948 51.68C113.492 52.656 113.764 53.784 113.764 55.064ZM110.908 54.2C110.892 53.192 110.532 52.384 109.828 51.776C109.124 51.168 108.252 50.864 107.212 50.864C106.268 50.864 105.46 51.168 104.788 51.776C104.116 52.368 103.716 53.176 103.588 54.2H110.908ZM121.256 62.216C120.216 62.216 119.28 62.032 118.448 61.664C117.632 61.28 116.984 60.768 116.504 60.128C116.024 59.472 115.768 58.744 115.736 57.944H118.568C118.616 58.504 118.88 58.976 119.36 59.36C119.856 59.728 120.472 59.912 121.208 59.912C121.976 59.912 122.568 59.768 122.984 59.48C123.416 59.176 123.632 58.792 123.632 58.328C123.632 57.832 123.392 57.464 122.912 57.224C122.448 56.984 121.704 56.72 120.68 56.432C119.688 56.16 118.88 55.896 118.256 55.64C117.632 55.384 117.088 54.992 116.624 54.464C116.176 53.936 115.952 53.24 115.952 52.376C115.952 51.672 116.16 51.032 116.576 50.456C116.992 49.864 117.584 49.4 118.352 49.064C119.136 48.728 120.032 48.56 121.04 48.56C122.544 48.56 123.752 48.944 124.664 49.712C125.592 50.464 126.088 51.496 126.152 52.808H123.416C123.368 52.216 123.128 51.744 122.696 51.392C122.264 51.04 121.68 50.864 120.944 50.864C120.224 50.864 119.672 51 119.288 51.272C118.904 51.544 118.712 51.904 118.712 52.352C118.712 52.704 118.84 53 119.096 53.24C119.352 53.48 119.664 53.672 120.032 53.816C120.4 53.944 120.944 54.112 121.664 54.32C122.624 54.576 123.408 54.84 124.016 55.112C124.64 55.368 125.176 55.752 125.624 56.264C126.072 56.776 126.304 57.456 126.32 58.304C126.32 59.056 126.112 59.728 125.696 60.32C125.28 60.912 124.688 61.376 123.92 61.712C123.168 62.048 122.28 62.216 121.256 62.216ZM132.709 45.32L132.397 56.96H130.117L129.805 45.32H132.709ZM131.341 62.168C130.845 62.168 130.429 62 130.093 61.664C129.757 61.328 129.589 60.912 129.589 60.416C129.589 59.92 129.757 59.504 130.093 59.168C130.429 58.832 130.845 58.664 131.341 58.664C131.821 58.664 132.229 58.832 132.565 59.168C132.901 59.504 133.069 59.92 133.069 60.416C133.069 60.912 132.901 61.328 132.565 61.664C132.229 62 131.821 62.168 131.341 62.168Z" fill="url(#paint1_linear_115_7239)"/>
<g clip-path="url(#clip0_115_7239)">
<path d="M444.095 60C444.095 58.9 443.195 58 442.095 58H426.095C424.995 58 424.095 58.9 424.095 60V72C424.095 73.1 424.995 74 426.095 74H442.095C443.195 74 444.095 73.1 444.095 72V60ZM442.095 60L434.095 64.99L426.095 60H442.095ZM442.095 72H426.095V62L434.095 67L442.095 62V72Z" fill="url(#paint2_linear_115_7239)"/>
</g>
<path d="M456.783 66.416C456.783 65.328 457.028 64.352 457.519 63.488C458.009 62.6133 458.676 61.9307 459.519 61.44C460.372 60.9493 461.316 60.704 462.351 60.704C463.567 60.704 464.628 60.9973 465.535 61.584C466.441 62.1707 467.103 63.0027 467.519 64.08H465.775C465.465 63.408 465.017 62.8907 464.431 62.528C463.855 62.1653 463.161 61.984 462.351 61.984C461.572 61.984 460.873 62.1653 460.255 62.528C459.636 62.8907 459.151 63.408 458.799 64.08C458.447 64.7413 458.271 65.52 458.271 66.416C458.271 67.3013 458.447 68.08 458.799 68.752C459.151 69.4133 459.636 69.9253 460.255 70.288C460.873 70.6507 461.572 70.832 462.351 70.832C463.161 70.832 463.855 70.656 464.431 70.304C465.017 69.9413 465.465 69.424 465.775 68.752H467.519C467.103 69.8187 466.441 70.6453 465.535 71.232C464.628 71.808 463.567 72.096 462.351 72.096C461.316 72.096 460.372 71.856 459.519 71.376C458.676 70.8853 458.009 70.208 457.519 69.344C457.028 68.48 456.783 67.504 456.783 66.416ZM469.142 67.584C469.142 66.688 469.323 65.904 469.686 65.232C470.049 64.5493 470.545 64.0213 471.174 63.648C471.814 63.2747 472.523 63.088 473.302 63.088C474.07 63.088 474.737 63.2533 475.302 63.584C475.867 63.9147 476.289 64.3307 476.566 64.832V63.232H478.038V72H476.566V70.368C476.278 70.88 475.846 71.3067 475.27 71.648C474.705 71.9787 474.043 72.144 473.286 72.144C472.507 72.144 471.803 71.952 471.174 71.568C470.545 71.184 470.049 70.6453 469.686 69.952C469.323 69.2587 469.142 68.4693 469.142 67.584ZM476.566 67.6C476.566 66.9387 476.433 66.3627 476.166 65.872C475.899 65.3813 475.537 65.008 475.078 64.752C474.63 64.4853 474.134 64.352 473.59 64.352C473.046 64.352 472.55 64.48 472.102 64.736C471.654 64.992 471.297 65.3653 471.03 65.856C470.763 66.3467 470.63 66.9227 470.63 67.584C470.63 68.256 470.763 68.8427 471.03 69.344C471.297 69.8347 471.654 70.2133 472.102 70.48C472.55 70.736 473.046 70.864 473.59 70.864C474.134 70.864 474.63 70.736 475.078 70.48C475.537 70.2133 475.899 69.8347 476.166 69.344C476.433 68.8427 476.566 68.2613 476.566 67.6ZM479.955 67.584C479.955 66.688 480.136 65.904 480.499 65.232C480.861 64.5493 481.357 64.0213 481.987 63.648C482.627 63.2747 483.341 63.088 484.131 63.088C484.813 63.088 485.448 63.248 486.035 63.568C486.621 63.8773 487.069 64.288 487.379 64.8V60.16H488.851V72H487.379V70.352C487.091 70.8747 486.664 71.3067 486.099 71.648C485.533 71.9787 484.872 72.144 484.115 72.144C483.336 72.144 482.627 71.952 481.987 71.568C481.357 71.184 480.861 70.6453 480.499 69.952C480.136 69.2587 479.955 68.4693 479.955 67.584ZM487.379 67.6C487.379 66.9387 487.245 66.3627 486.979 65.872C486.712 65.3813 486.349 65.008 485.891 64.752C485.443 64.4853 484.947 64.352 484.403 64.352C483.859 64.352 483.363 64.48 482.915 64.736C482.467 64.992 482.109 65.3653 481.843 65.856C481.576 66.3467 481.443 66.9227 481.443 67.584C481.443 68.256 481.576 68.8427 481.843 69.344C482.109 69.8347 482.467 70.2133 482.915 70.48C483.363 70.736 483.859 70.864 484.403 70.864C484.947 70.864 485.443 70.736 485.891 70.48C486.349 70.2133 486.712 69.8347 486.979 69.344C487.245 68.8427 487.379 68.2613 487.379 67.6ZM490.767 67.584C490.767 66.688 490.948 65.904 491.311 65.232C491.674 64.5493 492.17 64.0213 492.799 63.648C493.439 63.2747 494.148 63.088 494.927 63.088C495.695 63.088 496.362 63.2533 496.927 63.584C497.492 63.9147 497.914 64.3307 498.191 64.832V63.232H499.663V72H498.191V70.368C497.903 70.88 497.471 71.3067 496.895 71.648C496.33 71.9787 495.668 72.144 494.911 72.144C494.132 72.144 493.428 71.952 492.799 71.568C492.17 71.184 491.674 70.6453 491.311 69.952C490.948 69.2587 490.767 68.4693 490.767 67.584ZM498.191 67.6C498.191 66.9387 498.058 66.3627 497.791 65.872C497.524 65.3813 497.162 65.008 496.703 64.752C496.255 64.4853 495.759 64.352 495.215 64.352C494.671 64.352 494.175 64.48 493.727 64.736C493.279 64.992 492.922 65.3653 492.655 65.856C492.388 66.3467 492.255 66.9227 492.255 67.584C492.255 68.256 492.388 68.8427 492.655 69.344C492.922 69.8347 493.279 70.2133 493.727 70.48C494.175 70.736 494.671 70.864 495.215 70.864C495.759 70.864 496.255 70.736 496.703 70.48C497.162 70.2133 497.524 69.8347 497.791 69.344C498.058 68.8427 498.191 68.2613 498.191 67.6ZM505.228 72.144C504.556 72.144 503.953 72.032 503.42 71.808C502.886 71.5733 502.465 71.2533 502.156 70.848C501.846 70.432 501.676 69.9573 501.644 69.424H503.148C503.19 69.8613 503.393 70.2187 503.756 70.496C504.129 70.7733 504.614 70.912 505.212 70.912C505.766 70.912 506.204 70.7893 506.524 70.544C506.844 70.2987 507.004 69.9893 507.004 69.616C507.004 69.232 506.833 68.9493 506.492 68.768C506.15 68.576 505.622 68.3893 504.908 68.208C504.257 68.0373 503.724 67.8667 503.308 67.696C502.902 67.5147 502.55 67.2533 502.252 66.912C501.964 66.56 501.82 66.1013 501.82 65.536C501.82 65.088 501.953 64.6773 502.22 64.304C502.486 63.9307 502.865 63.6373 503.356 63.424C503.846 63.2 504.406 63.088 505.036 63.088C506.006 63.088 506.79 63.3333 507.388 63.824C507.985 64.3147 508.305 64.9867 508.348 65.84H506.892C506.86 65.3813 506.673 65.0133 506.332 64.736C506.001 64.4587 505.553 64.32 504.988 64.32C504.465 64.32 504.049 64.432 503.74 64.656C503.43 64.88 503.276 65.1733 503.276 65.536C503.276 65.824 503.366 66.064 503.548 66.256C503.74 66.4373 503.974 66.5867 504.252 66.704C504.54 66.8107 504.934 66.9333 505.436 67.072C506.065 67.2427 506.577 67.4133 506.972 67.584C507.366 67.744 507.702 67.9893 507.98 68.32C508.268 68.6507 508.417 69.0827 508.428 69.616C508.428 70.096 508.294 70.528 508.028 70.912C507.761 71.296 507.382 71.6 506.892 71.824C506.412 72.0373 505.857 72.144 505.228 72.144ZM512.259 64.432V69.6C512.259 70.0267 512.35 70.3307 512.531 70.512C512.712 70.6827 513.027 70.768 513.475 70.768H514.547V72H513.235C512.424 72 511.816 71.8133 511.411 71.44C511.006 71.0667 510.803 70.4533 510.803 69.6V64.432H509.667V63.232H510.803V61.024H512.259V63.232H514.547V64.432H512.259ZM517.767 64.656C518.023 64.1547 518.386 63.7653 518.855 63.488C519.335 63.2107 519.916 63.072 520.599 63.072V64.576H520.215C518.583 64.576 517.767 65.4613 517.767 67.232V72H516.311V63.232H517.767V64.656ZM530.28 67.28C530.28 67.5573 530.264 67.8507 530.232 68.16H523.224C523.277 69.024 523.571 69.7013 524.104 70.192C524.648 70.672 525.304 70.912 526.072 70.912C526.701 70.912 527.224 70.768 527.64 70.48C528.067 70.1813 528.365 69.7867 528.536 69.296H530.104C529.869 70.1387 529.4 70.8267 528.696 71.36C527.992 71.8827 527.117 72.144 526.072 72.144C525.24 72.144 524.493 71.9573 523.832 71.584C523.181 71.2107 522.669 70.6827 522.296 70C521.923 69.3067 521.736 68.5067 521.736 67.6C521.736 66.6933 521.917 65.8987 522.28 65.216C522.643 64.5333 523.149 64.0107 523.8 63.648C524.461 63.2747 525.219 63.088 526.072 63.088C526.904 63.088 527.64 63.2693 528.28 63.632C528.92 63.9947 529.411 64.496 529.752 65.136C530.104 65.7653 530.28 66.48 530.28 67.28ZM528.776 66.976C528.776 66.4213 528.653 65.9467 528.408 65.552C528.163 65.1467 527.827 64.8427 527.4 64.64C526.984 64.4267 526.52 64.32 526.008 64.32C525.272 64.32 524.643 64.5547 524.12 65.024C523.608 65.4933 523.315 66.144 523.24 66.976H528.776ZM539.571 72.144C538.899 72.144 538.297 72.032 537.763 71.808C537.23 71.5733 536.809 71.2533 536.499 70.848C536.19 70.432 536.019 69.9573 535.987 69.424H537.491C537.534 69.8613 537.737 70.2187 538.099 70.496C538.473 70.7733 538.958 70.912 539.555 70.912C540.11 70.912 540.547 70.7893 540.867 70.544C541.187 70.2987 541.347 69.9893 541.347 69.616C541.347 69.232 541.177 68.9493 540.835 68.768C540.494 68.576 539.966 68.3893 539.251 68.208C538.601 68.0373 538.067 67.8667 537.651 67.696C537.246 67.5147 536.894 67.2533 536.595 66.912C536.307 66.56 536.163 66.1013 536.163 65.536C536.163 65.088 536.297 64.6773 536.563 64.304C536.83 63.9307 537.209 63.6373 537.699 63.424C538.19 63.2 538.75 63.088 539.379 63.088C540.35 63.088 541.134 63.3333 541.731 63.824C542.329 64.3147 542.649 64.9867 542.691 65.84H541.235C541.203 65.3813 541.017 65.0133 540.675 64.736C540.345 64.4587 539.897 64.32 539.331 64.32C538.809 64.32 538.393 64.432 538.083 64.656C537.774 64.88 537.619 65.1733 537.619 65.536C537.619 65.824 537.71 66.064 537.891 66.256C538.083 66.4373 538.318 66.5867 538.595 66.704C538.883 66.8107 539.278 66.9333 539.779 67.072C540.409 67.2427 540.921 67.4133 541.315 67.584C541.71 67.744 542.046 67.9893 542.323 68.32C542.611 68.6507 542.761 69.0827 542.771 69.616C542.771 70.096 542.638 70.528 542.371 70.912C542.105 71.296 541.726 71.6 541.235 71.824C540.755 72.0373 540.201 72.144 539.571 72.144ZM552.827 67.28C552.827 67.5573 552.811 67.8507 552.779 68.16H545.771C545.824 69.024 546.117 69.7013 546.651 70.192C547.195 70.672 547.851 70.912 548.619 70.912C549.248 70.912 549.771 70.768 550.187 70.48C550.613 70.1813 550.912 69.7867 551.083 69.296H552.651C552.416 70.1387 551.947 70.8267 551.243 71.36C550.539 71.8827 549.664 72.144 548.619 72.144C547.787 72.144 547.04 71.9573 546.379 71.584C545.728 71.2107 545.216 70.6827 544.843 70C544.469 69.3067 544.283 68.5067 544.283 67.6C544.283 66.6933 544.464 65.8987 544.827 65.216C545.189 64.5333 545.696 64.0107 546.347 63.648C547.008 63.2747 547.765 63.088 548.619 63.088C549.451 63.088 550.187 63.2693 550.827 63.632C551.467 63.9947 551.957 64.496 552.299 65.136C552.651 65.7653 552.827 66.48 552.827 67.28ZM551.323 66.976C551.323 66.4213 551.2 65.9467 550.955 65.552C550.709 65.1467 550.373 64.8427 549.947 64.64C549.531 64.4267 549.067 64.32 548.555 64.32C547.819 64.32 547.189 64.5547 546.667 65.024C546.155 65.4933 545.861 66.144 545.787 66.976H551.323ZM562.525 63.232V72H561.069V70.704C560.791 71.152 560.402 71.504 559.901 71.76C559.41 72.0053 558.866 72.128 558.269 72.128C557.586 72.128 556.973 71.9893 556.429 71.712C555.885 71.424 555.453 70.9973 555.133 70.432C554.823 69.8667 554.669 69.1787 554.669 68.368V63.232H556.109V68.176C556.109 69.04 556.327 69.7067 556.765 70.176C557.202 70.6347 557.799 70.864 558.557 70.864C559.335 70.864 559.949 70.624 560.397 70.144C560.845 69.664 561.069 68.9653 561.069 68.048V63.232H562.525ZM577.249 67.28C577.249 67.5573 577.233 67.8507 577.201 68.16H570.193C570.246 69.024 570.539 69.7013 571.073 70.192C571.617 70.672 572.273 70.912 573.041 70.912C573.67 70.912 574.193 70.768 574.609 70.48C575.035 70.1813 575.334 69.7867 575.505 69.296H577.073C576.838 70.1387 576.369 70.8267 575.665 71.36C574.961 71.8827 574.086 72.144 573.041 72.144C572.209 72.144 571.462 71.9573 570.801 71.584C570.15 71.2107 569.638 70.6827 569.265 70C568.891 69.3067 568.705 68.5067 568.705 67.6C568.705 66.6933 568.886 65.8987 569.249 65.216C569.611 64.5333 570.118 64.0107 570.769 63.648C571.43 63.2747 572.187 63.088 573.041 63.088C573.873 63.088 574.609 63.2693 575.249 63.632C575.889 63.9947 576.379 64.496 576.721 65.136C577.073 65.7653 577.249 66.48 577.249 67.28ZM575.745 66.976C575.745 66.4213 575.622 65.9467 575.377 65.552C575.131 65.1467 574.795 64.8427 574.369 64.64C573.953 64.4267 573.489 64.32 572.977 64.32C572.241 64.32 571.611 64.5547 571.089 65.024C570.577 65.4933 570.283 66.144 570.209 66.976H575.745ZM585.25 65.52V66.752H578.866V65.52H585.25ZM598.527 63.072C599.21 63.072 599.818 63.216 600.351 63.504C600.884 63.7813 601.306 64.2027 601.615 64.768C601.924 65.3333 602.079 66.0213 602.079 66.832V72H600.639V67.04C600.639 66.1653 600.42 65.4987 599.983 65.04C599.556 64.5707 598.975 64.336 598.239 64.336C597.482 64.336 596.879 64.5813 596.431 65.072C595.983 65.552 595.759 66.2507 595.759 67.168V72H594.319V67.04C594.319 66.1653 594.1 65.4987 593.663 65.04C593.236 64.5707 592.655 64.336 591.919 64.336C591.162 64.336 590.559 64.5813 590.111 65.072C589.663 65.552 589.439 66.2507 589.439 67.168V72H587.983V63.232H589.439V64.496C589.727 64.0373 590.111 63.6853 590.591 63.44C591.082 63.1947 591.62 63.072 592.207 63.072C592.943 63.072 593.594 63.2373 594.159 63.568C594.724 63.8987 595.146 64.384 595.423 65.024C595.668 64.4053 596.074 63.9253 596.639 63.584C597.204 63.2427 597.834 63.072 598.527 63.072ZM603.923 67.584C603.923 66.688 604.105 65.904 604.467 65.232C604.83 64.5493 605.326 64.0213 605.955 63.648C606.595 63.2747 607.305 63.088 608.083 63.088C608.851 63.088 609.518 63.2533 610.083 63.584C610.649 63.9147 611.07 64.3307 611.347 64.832V63.232H612.819V72H611.347V70.368C611.059 70.88 610.627 71.3067 610.051 71.648C609.486 71.9787 608.825 72.144 608.067 72.144C607.289 72.144 606.585 71.952 605.955 71.568C605.326 71.184 604.83 70.6453 604.467 69.952C604.105 69.2587 603.923 68.4693 603.923 67.584ZM611.347 67.6C611.347 66.9387 611.214 66.3627 610.947 65.872C610.681 65.3813 610.318 65.008 609.859 64.752C609.411 64.4853 608.915 64.352 608.371 64.352C607.827 64.352 607.331 64.48 606.883 64.736C606.435 64.992 606.078 65.3653 605.811 65.856C605.545 66.3467 605.411 66.9227 605.411 67.584C605.411 68.256 605.545 68.8427 605.811 69.344C606.078 69.8347 606.435 70.2133 606.883 70.48C607.331 70.736 607.827 70.864 608.371 70.864C608.915 70.864 609.411 70.736 609.859 70.48C610.318 70.2133 610.681 69.8347 610.947 69.344C611.214 68.8427 611.347 68.2613 611.347 67.6ZM616.032 61.808C615.755 61.808 615.52 61.712 615.328 61.52C615.136 61.328 615.04 61.0933 615.04 60.816C615.04 60.5387 615.136 60.304 615.328 60.112C615.52 59.92 615.755 59.824 616.032 59.824C616.299 59.824 616.523 59.92 616.704 60.112C616.896 60.304 616.992 60.5387 616.992 60.816C616.992 61.0933 616.896 61.328 616.704 61.52C616.523 61.712 616.299 61.808 616.032 61.808ZM616.736 63.232V72H615.28V63.232H616.736ZM620.673 60.16V72H619.217V60.16H620.673Z" fill="url(#paint3_linear_115_7239)"/>
<rect x="398.595" y="44.5" width="325.906" height="43" rx="21.5" stroke="url(#paint4_linear_115_7239)"/>
<defs>
<linearGradient id="paint0_linear_115_7239" x1="147.492" y1="79.36" x2="408.514" y2="338.945" gradientUnits="userSpaceOnUse">
<stop stop-color="#002F52"/>
<stop offset="1" stop-color="#326589"/>
</linearGradient>
<linearGradient id="paint1_linear_115_7239" x1="157.102" y1="-7.92002" x2="509.552" y2="257.948" gradientUnits="userSpaceOnUse">
<stop stop-color="#002F52"/>
<stop offset="1" stop-color="#326589"/>
</linearGradient>
<linearGradient id="paint2_linear_115_7239" x1="432.451" y1="56.08" x2="461.082" y2="60.8188" gradientUnits="userSpaceOnUse">
<stop stop-color="#002F52"/>
<stop offset="1" stop-color="#326589"/>
</linearGradient>
<linearGradient id="paint3_linear_115_7239" x1="525.454" y1="51.12" x2="658.23" y2="172.723" gradientUnits="userSpaceOnUse">
<stop stop-color="#002F52"/>
<stop offset="1" stop-color="#326589"/>
</linearGradient>
<linearGradient id="paint4_linear_115_7239" x1="534.684" y1="38.72" x2="779.016" y2="279.087" gradientUnits="userSpaceOnUse">
<stop stop-color="#002F52"/>
<stop offset="1" stop-color="#326589"/>
</linearGradient>
<clipPath id="clip0_115_7239">
<rect width="24" height="24" fill="white" transform="translate(422.095 54)"/>
</clipPath>
</defs>
</svg>
